<svg width="483" height="572" viewBox="0 0 483 572" fill="none" xmlns="http://www.w3.org/2000/svg">
<path d="M460.1 368.309C457.131 340.602 435.55 293.341 435.314 292.823C435.173 292.54 435.032 292.21 434.937 291.88C425.608 265.069 409.775 224.168 403.697 217.053C392.812 204.284 385.178 204.614 341.167 208.713L338.764 208.949C316.288 211.069 284.905 213.661 241.46 215.357C241.177 215.357 240.895 215.357 240.659 215.357C197.167 213.661 165.784 211.022 143.355 208.949L140.952 208.713C96.9408 204.566 89.3073 204.284 78.4224 217.053C72.3439 224.168 56.5113 265.069 47.1814 291.88C47.0872 292.21 46.9458 292.493 46.8044 292.823C46.5688 293.294 25.0347 340.555 22.0189 368.309C18.2964 402.707 23.8095 423.817 37.8986 429.283C42.9405 431.262 52.3647 425.372 58.4432 418.351C53.9668 393.707 57.6893 366.377 60.2339 350.827C60.7051 348.047 66.2181 324.676 66.2181 329.294C66.3595 351.299 70.5061 404.592 84.0297 428.953C84.0769 429.047 84.1241 429.141 84.1712 429.235C116.449 486.486 160.177 509.858 232.79 513.91C235.994 514.099 245.465 514.099 248.622 513.91C321.235 509.858 364.963 486.486 397.241 429.235C397.288 429.141 397.335 429.047 397.382 428.953C410.906 404.592 415.1 351.299 415.194 329.294C415.194 324.629 420.754 348.047 421.178 350.827C423.676 366.236 427.351 393.236 423.063 417.738C429.142 424.995 438.943 431.262 444.079 429.283C458.168 423.769 463.681 402.707 459.959 368.309H460.1Z" fill="#3882BC"/>
<path d="M422.497 151.65C416.749 138.221 406.948 124.886 393.188 111.693C387.298 106.085 380.701 100.478 373.398 94.9178C371.937 95.1063 370.429 95.2477 368.874 95.2477C352.005 95.2477 337.869 83.7503 333.816 68.1536C325.853 63.3002 318.219 59.2007 310.916 55.9494C286.319 45.0176 264.596 42.1904 241.601 42.1904C218.606 42.1904 197.308 44.9705 172.993 55.6667C165.69 58.8709 158.103 62.8761 150.234 67.6352C146.323 83.4676 132.046 95.2006 115.035 95.2006C113.669 95.2006 112.302 95.1063 110.936 94.9649C102.972 100.996 96.3281 106.415 90.6736 111.645C77.6212 123.708 69.4693 135.111 60.3279 152.404C49.1132 173.656 49.443 209.844 50.2441 214.744C50.5268 216.064 51.6106 218.231 52.9771 220.54C56.5112 213.001 59.9039 206.875 62.6369 203.624C80.8254 182.279 97.7418 183.881 142.883 188.122L145.239 188.357C167.386 190.43 198.25 193.022 241.036 194.671C283.821 193.022 314.685 190.43 336.832 188.357L339.188 188.122C384.33 183.881 401.246 182.326 419.435 203.624C422.309 206.97 425.843 213.519 429.566 221.483C431.215 218.844 432.581 216.158 432.911 214.697C433.665 209.231 432.11 174.221 422.45 151.603L422.497 151.65Z" fill="white"/>
<path d="M213.895 161.122C219.021 161.122 223.177 156.966 223.177 151.839C223.177 146.712 219.021 142.556 213.895 142.556C208.768 142.556 204.612 146.712 204.612 151.839C204.612 156.966 208.768 161.122 213.895 161.122Z" fill="#3882BC"/>
<path d="M268.837 161.122C273.964 161.122 278.12 156.966 278.12 151.839C278.12 146.712 273.964 142.556 268.837 142.556C263.711 142.556 259.555 146.712 259.555 151.839C259.555 156.966 263.711 161.122 268.837 161.122Z" fill="#3882BC"/>
<path d="M176.056 548.591C172.004 551.182 168.847 550.947 166.915 550.24C164.936 549.533 163.993 548.308 163.852 547.978C163.192 545.716 161.072 538.743 154.24 536.387C152.779 535.868 151.412 535.68 150.093 535.68C145.616 535.68 142.082 538.13 140.386 539.308L139.585 539.826C127.946 547.271 118.192 548.591 113.009 547.366C109.899 546.612 108.721 545.151 108.061 544.067C101.653 533.324 110.417 518.67 122.527 507.879C135.344 514.711 151.271 522.439 158.952 525.361C172.805 530.638 184.491 532.146 194.009 532.664C188.732 539.214 181.994 544.774 176.056 548.638V548.591Z" fill="white"/>
<path d="M373.822 544.067C373.162 545.151 371.984 546.659 368.874 547.366C363.691 548.591 353.937 547.271 342.298 539.826L341.544 539.308C339.33 537.753 334.099 534.125 327.691 536.387C320.858 538.79 318.785 545.716 318.078 547.978C317.937 548.355 316.995 549.58 315.015 550.287C313.084 550.947 309.926 551.23 305.874 548.638C299.937 544.821 293.199 539.214 287.968 532.664C297.487 532.146 309.173 530.638 323.026 525.361C330.707 522.439 346.633 514.759 359.45 507.879C371.513 518.67 380.325 533.324 373.916 544.067H373.822Z" fill="white"/>
<path d="M480.739 366.094C477.535 336.22 456.849 290.09 454.398 284.671C452.231 278.498 446.246 261.535 439.461 244.477C447.142 237.362 453.597 225.676 454.87 218.797C456.425 210.456 454.681 170.216 442.995 142.886C436.492 127.713 425.937 112.871 411.471 98.4519C421.131 88.0854 427.068 74.185 427.068 58.918C427.068 26.8763 400.963 0.771729 368.921 0.771729C345.738 0.771729 325.712 14.4366 316.382 34.1328C287.968 22.1643 263.795 19.9496 241.601 19.9496C219.407 19.9496 195.564 22.1642 167.433 33.8972C158.056 14.3423 138.124 0.771729 115.035 0.771729C82.9931 0.771729 56.8883 26.8763 56.8883 58.918C56.8883 74.0907 62.7784 87.944 72.391 98.3104C59.8098 110.562 50.5269 123.426 40.6787 142.085C26.1656 169.65 27.108 211.87 28.4274 218.797C29.6525 225.441 35.6839 236.655 43.0348 243.818C36.108 261.111 29.9823 278.451 27.8148 284.671C25.3645 290.09 4.67853 336.267 1.47432 366.094C-3.42623 411.471 6.32777 439.272 30.5007 448.649C33.7049 449.874 36.9562 450.44 40.1604 450.44C49.2547 450.44 58.1605 446.01 65.4642 440.262C76.0193 462.502 89.8727 480.408 106.506 494.544C88.9774 511.319 78.3753 534.502 90.344 554.669C94.255 561.219 100.475 565.695 108.297 567.533C119.465 570.172 133.318 567.345 146.795 559.711C149.716 564.093 154.24 567.627 159.658 569.654C162.863 570.832 166.255 571.444 169.648 571.444C175.68 571.444 181.805 569.606 187.365 566.025C200.606 557.497 211.35 546.046 217.664 534.313C222.659 534.596 227.748 534.737 232.931 534.737H248.764C254.041 534.737 259.224 534.549 264.361 534.313C270.628 546.046 281.418 557.497 294.659 566.025C300.219 569.606 306.345 571.444 312.377 571.444C315.769 571.444 319.115 570.879 322.366 569.701C327.785 567.674 332.309 564.141 335.23 559.758C348.754 567.392 362.56 570.219 373.728 567.58C381.597 565.743 387.817 561.266 391.728 554.716C403.791 534.502 393.094 511.225 375.424 494.45C392.058 480.314 405.864 462.314 416.419 440.026C426.314 447.895 439.414 453.502 451.807 448.696C475.932 439.319 485.686 411.518 480.833 366.142L480.739 366.094ZM60.328 152.452C69.4223 135.158 77.6213 123.755 90.6738 111.693C96.3283 106.462 102.972 101.043 110.936 95.012C92.7942 92.9859 78.7051 77.6247 78.7051 58.9651C78.7051 38.9391 94.9618 22.6826 114.988 22.6826C135.014 22.6826 151.271 38.9391 151.271 58.9651C151.271 61.9808 150.847 64.9022 150.187 67.6823C158.103 62.9232 165.69 58.918 172.947 55.7138C197.261 45.0176 218.795 42.2375 241.554 42.2375C264.314 42.2375 286.272 45.0175 310.869 55.9965C318.22 59.2478 325.853 63.3473 333.769 68.2006C333.015 65.2321 332.544 62.1693 332.544 58.9651C332.544 38.9391 348.801 22.6826 368.827 22.6826C388.853 22.6826 405.11 38.9391 405.11 58.9651C405.11 77.4834 391.209 92.7503 373.304 94.9649C380.607 100.525 387.251 106.085 393.094 111.74C406.806 124.886 416.655 138.268 422.403 151.698C432.063 174.268 433.618 209.326 432.864 214.792C432.534 216.299 431.168 218.938 429.519 221.577C425.796 213.614 422.262 207.064 419.388 203.718C401.199 182.373 384.283 183.975 339.141 188.216L336.785 188.451C314.638 190.525 283.774 193.116 240.989 194.765C198.203 193.116 167.339 190.525 145.192 188.451L142.836 188.216C97.6477 183.975 80.7785 182.42 62.5899 203.718C59.8569 206.922 56.4642 213.095 52.9301 220.634C51.5636 218.326 50.4798 216.158 50.1971 214.839C49.3961 209.938 49.0662 173.797 60.2809 152.499L60.328 152.452ZM176.056 548.591C172.004 551.182 168.847 550.947 166.915 550.24C164.936 549.533 163.994 548.308 163.852 547.978C163.192 545.716 161.072 538.743 154.24 536.387C152.779 535.868 151.412 535.68 150.093 535.68C145.616 535.68 142.082 538.13 140.386 539.308L139.585 539.826C127.946 547.271 118.192 548.591 113.009 547.366C109.899 546.612 108.721 545.151 108.061 544.067C101.653 533.324 110.417 518.67 122.527 507.879C135.344 514.711 151.271 522.439 158.952 525.361C172.805 530.638 184.491 532.146 194.009 532.664C188.732 539.214 181.994 544.774 176.056 548.638V548.591ZM373.822 544.067C373.162 545.151 371.984 546.659 368.874 547.366C363.691 548.591 353.937 547.271 342.298 539.826L341.544 539.308C339.33 537.753 334.099 534.125 327.691 536.387C320.858 538.79 318.785 545.716 318.078 547.978C317.937 548.355 316.994 549.58 315.015 550.287C313.083 550.947 309.926 551.23 305.874 548.638C299.937 544.821 293.199 539.214 287.968 532.664C297.486 532.146 309.172 530.638 323.026 525.361C330.707 522.439 346.633 514.759 359.45 507.879C371.513 518.67 380.325 533.324 373.916 544.067H373.822ZM444.173 429.33C438.99 431.309 429.236 425.042 423.157 417.785C427.445 393.283 423.77 366.283 421.272 350.875C420.801 348.094 415.288 324.723 415.288 329.341C415.147 351.44 411 405.063 397.335 429.283C365.057 486.534 321.33 509.905 248.717 513.957C245.512 514.146 236.041 514.146 232.884 513.957C160.271 509.905 116.543 486.534 84.2654 429.283C70.6004 405.063 66.4066 351.44 66.3124 329.341C66.3124 324.676 60.7521 348.094 60.328 350.875C57.8306 366.377 54.1082 393.707 58.5375 418.398C52.4589 425.419 43.0348 431.309 37.9928 429.33C23.9038 423.817 18.3907 402.754 22.1132 368.356C25.0818 340.65 46.6631 293.341 46.8987 292.87C47.0401 292.587 47.1814 292.257 47.2757 291.927C56.6056 265.116 72.4381 224.216 78.5166 217.1C89.4015 204.331 97.0351 204.661 141.046 208.76L143.449 208.996C165.925 211.116 197.261 213.708 240.753 215.404C240.989 215.404 241.271 215.404 241.554 215.404C285.047 213.708 316.429 211.069 338.858 208.996L341.262 208.76C385.272 204.614 392.906 204.331 403.791 217.1C409.869 224.216 425.702 265.116 435.032 291.927C435.126 292.257 435.267 292.54 435.409 292.87C435.644 293.341 457.178 340.602 460.194 368.356C463.917 402.754 458.404 423.864 444.314 429.33H444.173Z" fill="white"/>
<path d="M368.922 95.2006C388.96 95.2006 405.204 78.9563 405.204 58.9181C405.204 38.8798 388.96 22.6355 368.922 22.6355C348.883 22.6355 332.639 38.8798 332.639 58.9181C332.639 78.9563 348.883 95.2006 368.922 95.2006Z" fill="white"/>
<path d="M115.035 95.2006C135.074 95.2006 151.318 78.9563 151.318 58.9181C151.318 38.8798 135.074 22.6355 115.035 22.6355C94.9968 22.6355 78.7524 38.8798 78.7524 58.9181C78.7524 78.9563 94.9968 95.2006 115.035 95.2006Z" fill="white"/>
<path d="M115.035 86.5304C130.285 86.5304 142.648 74.1679 142.648 58.918C142.648 43.6681 130.285 31.3056 115.035 31.3056C99.785 31.3056 87.4224 43.6681 87.4224 58.918C87.4224 74.1679 99.785 86.5304 115.035 86.5304Z" fill="#3882BC"/>
<path d="M368.921 86.5304C384.171 86.5304 396.534 74.1679 396.534 58.918C396.534 43.6681 384.171 31.3056 368.921 31.3056C353.671 31.3056 341.309 43.6681 341.309 58.918C341.309 74.1679 353.671 86.5304 368.921 86.5304Z" fill="#3882BC"/>
<path d="M402.142 279.158C402.142 244.854 386.215 217.525 361.382 207.017C355.634 207.441 349.037 208.053 341.215 208.807L338.811 209.043C329.34 209.938 318.126 210.928 305.262 211.87C283.256 223.98 263.701 246.551 260.968 273.221C272.748 279.063 281.654 289.336 281.654 299.466C281.654 314.121 265.256 324.016 240.848 324.016C216.439 324.016 200.041 314.168 200.041 299.466C200.041 289.194 209.135 278.828 221.198 272.985C218.371 246.409 198.863 223.933 176.952 211.87C164.041 210.928 152.873 209.938 143.402 209.043L140.999 208.807C133.177 208.053 126.58 207.488 120.831 207.017C95.9986 217.525 80.0718 244.854 80.0718 279.158C80.0718 316.241 113.339 346.869 150.47 346.869C151.742 346.869 152.967 346.728 154.24 346.681C139.962 362.937 131.386 383.246 131.386 405.298C131.386 458.497 180.627 501.612 241.366 501.612C302.104 501.612 351.346 458.497 351.346 405.298C351.346 383.199 342.77 362.937 328.492 346.681C329.576 346.728 330.66 346.822 331.743 346.822C368.827 346.822 402.142 316.194 402.142 279.111V279.158Z" fill="white"/>
<path d="M158.245 283.116C169.591 283.116 178.789 273.918 178.789 262.571C178.789 251.225 169.591 242.027 158.245 242.027C146.898 242.027 137.7 251.225 137.7 262.571C137.7 273.918 146.898 283.116 158.245 283.116Z" fill="#3882BC"/>
<path d="M323.261 283.116C334.608 283.116 343.806 273.918 343.806 262.571C343.806 251.225 334.608 242.027 323.261 242.027C311.915 242.027 302.717 251.225 302.717 262.571C302.717 273.918 311.915 283.116 323.261 283.116Z" fill="#3882BC"/>
<path d="M240.848 268.226C220.633 268.226 200.041 283.964 200.041 299.419C200.041 314.875 216.439 323.969 240.848 323.969C265.256 323.969 281.654 314.121 281.654 299.419C281.654 283.964 261.062 268.226 240.848 268.226ZM240.848 311.058C225.439 311.058 212.999 305.875 212.999 299.466C212.999 293.058 225.486 281.184 240.848 281.184C256.209 281.184 268.696 293.058 268.696 299.466C268.696 305.875 256.209 311.058 240.848 311.058Z" fill="#3882BC"/>
<path d="M240.847 311.011C225.439 311.011 212.999 305.828 212.999 299.419C212.999 293.011 225.486 281.137 240.847 281.137C256.209 281.137 268.696 293.011 268.696 299.419C268.696 305.828 256.209 311.011 240.847 311.011Z" fill="white"/>
</svg>
