<svg width="179" height="212" viewBox="0 0 179 212" fill="none" xmlns="http://www.w3.org/2000/svg">
<path d="M170.83 136.74C169.72 126.48 161.74 108.99 161.66 108.81C161.61 108.7 161.56 108.59 161.52 108.47C158.07 98.55 152.2 83.4001 149.96 80.7801C145.93 76.0501 143.11 76.17 126.82 77.7L125.94 77.7801C117.62 78.5601 106.01 79.53 89.92 80.16C89.82 80.16 89.72 80.16 89.62 80.16C73.52 79.54 61.91 78.5601 53.6 77.7801L52.72 77.7C36.43 76.17 33.61 76.0501 29.58 80.7801C27.34 83.4101 21.47 98.56 18.02 108.47C17.98 108.59 17.93 108.7 17.88 108.81C17.8 108.99 9.82001 126.48 8.71001 136.74C7.34001 149.48 9.37 157.28 14.59 159.31C16.45 160.04 19.94 157.86 22.19 155.27C20.54 146.14 21.91 136.03 22.85 130.28C23.02 129.25 25.06 120.6 25.07 122.32C25.12 130.47 26.65 150.18 31.67 159.2C31.69 159.24 31.71 159.28 31.73 159.31C43.68 180.49 59.85 189.15 86.73 190.64C87.91 190.71 91.41 190.71 92.6 190.64C119.48 189.14 135.65 180.49 147.6 159.31C147.62 159.28 147.64 159.23 147.66 159.2C152.67 150.18 154.21 130.46 154.26 122.32C154.27 120.6 156.31 129.25 156.48 130.28C157.4 135.98 158.76 145.98 157.18 155.05C159.43 157.73 163.05 160.05 164.96 159.32C170.18 157.29 172.22 149.48 170.85 136.74H170.83Z" fill="#808080"/>
<path d="M156.91 56.54C154.78 51.57 151.15 46.63 146.07 41.76C143.9 39.68 141.44 37.61 138.74 35.56C138.19 35.63 137.64 35.67 137.07 35.67C130.83 35.67 125.6 31.41 124.09 25.65C121.15 23.86 118.32 22.35 115.61 21.14C106.5 17.09 98.46 16.05 89.96 16.05C81.46 16.05 73.57 17.07 64.56 21.03C61.86 22.22 59.05 23.7 56.13 25.47C54.68 31.33 49.41 35.68 43.1 35.68C42.59 35.68 42.09 35.65 41.59 35.59C38.64 37.82 36.19 39.82 34.09 41.76C29.26 46.23 26.23 50.45 22.86 56.85C18.71 64.72 18.83 78.11 19.13 79.92C19.23 80.4 19.63 81.21 20.14 82.06C21.46 79.27 22.7 76.99 23.72 75.8C30.45 67.9 36.7 68.49 53.42 70.06L54.3 70.14C62.49 70.91 73.92 71.86 89.75 72.48C105.58 71.86 117.01 70.91 125.2 70.14L126.08 70.06C142.79 68.49 149.05 67.91 155.78 75.8C156.84 77.04 158.15 79.46 159.52 82.41C160.13 81.43 160.64 80.45 160.76 79.89C161.04 77.87 160.46 64.91 156.89 56.55L156.91 56.54Z" fill="white"/>
<path d="M79.69 60.05C81.5844 60.05 83.12 58.5143 83.12 56.62C83.12 54.7257 81.5844 53.19 79.69 53.19C77.7957 53.19 76.26 54.7257 76.26 56.62C76.26 58.5143 77.7957 60.05 79.69 60.05Z" fill="black"/>
<path d="M100.03 60.05C101.924 60.05 103.46 58.5143 103.46 56.62C103.46 54.7257 101.924 53.19 100.03 53.19C98.1357 53.19 96.6 54.7257 96.6 56.62C96.6 58.5143 98.1357 60.05 100.03 60.05Z" fill="black"/>
<path d="M65.71 203.46C64.22 204.43 63.05 204.33 62.32 204.08C61.59 203.83 61.24 203.37 61.19 203.24C60.94 202.4 60.17 199.83 57.64 198.94C57.1 198.75 56.59 198.68 56.1 198.68C54.44 198.68 53.14 199.59 52.5 200.03L52.21 200.23C47.9 202.98 44.3 203.47 42.37 203.02C41.23 202.75 40.78 202.19 40.54 201.8C38.17 197.82 41.42 192.39 45.89 188.41C50.63 190.95 56.53 193.79 59.37 194.88C64.49 196.84 68.82 197.4 72.34 197.58C70.39 200 67.9 202.07 65.7 203.48L65.71 203.46Z" fill="white"/>
<path d="M138.9 201.78C138.66 202.17 138.22 202.73 137.07 203C135.15 203.46 131.54 202.97 127.23 200.21L126.95 200.02C126.13 199.45 124.2 198.1 121.81 198.93C119.28 199.81 118.51 202.38 118.26 203.22C118.21 203.36 117.86 203.81 117.13 204.07C116.41 204.32 115.24 204.42 113.74 203.45C111.55 202.03 109.05 199.96 107.1 197.55C110.62 197.37 114.95 196.81 120.07 194.85C122.91 193.77 128.81 190.92 133.55 188.38C138.02 192.37 141.27 197.8 138.9 201.77V201.78Z" fill="white"/>
<path d="M178.46 135.92C177.27 124.87 169.63 107.79 168.71 105.78C167.92 103.5 165.69 97.22 163.18 90.91C166.03 88.28 168.4 83.95 168.88 81.4C169.45 78.31 168.81 63.43 164.48 53.3C162.08 47.69 158.17 42.2 152.81 36.86C156.38 33.02 158.59 27.88 158.59 22.23C158.59 10.36 148.94 0.710022 137.07 0.710022C128.49 0.710022 121.08 5.77 117.63 13.06C107.11 8.63 98.17 7.81 89.95 7.81C81.73 7.81 72.92 8.61997 62.49 12.97C59.02 5.72997 51.64 0.710022 43.09 0.710022C31.22 0.710022 21.57 10.36 21.57 22.23C21.57 27.85 23.76 32.96 27.3 36.8C22.65 41.33 19.21 46.09 15.57 53C10.2 63.2 10.55 78.82 11.03 81.4C11.49 83.87 13.72 88.01 16.44 90.66C13.88 97.05 11.61 103.47 10.8 105.78C9.89001 107.79 2.24001 124.87 1.05001 135.92C-0.759993 152.72 2.85001 163 11.79 166.48C12.97 166.94 14.17 167.14 15.36 167.14C18.73 167.14 22.03 165.49 24.72 163.38C28.63 171.61 33.76 178.24 39.91 183.46C33.41 189.67 29.49 198.25 33.94 205.71C35.39 208.14 37.69 209.79 40.59 210.48C44.72 211.46 49.84 210.41 54.84 207.59C55.92 209.22 57.59 210.52 59.6 211.27C60.79 211.71 62.04 211.92 63.3 211.92C65.53 211.92 67.8 211.24 69.86 209.91C74.76 206.75 78.75 202.52 81.07 198.18C82.92 198.28 84.8 198.33 86.71 198.33H92.58C94.54 198.33 96.46 198.27 98.35 198.17C100.67 202.51 104.66 206.75 109.56 209.91C111.62 211.24 113.89 211.92 116.12 211.92C117.38 211.92 118.62 211.7 119.81 211.27C121.82 210.53 123.49 209.22 124.58 207.59C129.58 210.41 134.7 211.46 138.83 210.48C141.74 209.79 144.04 208.14 145.48 205.72C149.94 198.24 145.98 189.63 139.45 183.41C145.6 178.17 150.72 171.52 154.62 163.27C158.28 166.19 163.12 168.26 167.71 166.48C176.64 163 180.25 152.72 178.45 135.92H178.46ZM22.87 56.84C26.24 50.44 29.27 46.22 34.1 41.75C36.2 39.81 38.65 37.81 41.6 35.58C34.89 34.83 29.68 29.14 29.68 22.23C29.68 14.81 35.7 8.78998 43.12 8.78998C50.54 8.78998 56.56 14.81 56.56 22.23C56.56 23.35 56.41 24.42 56.15 25.46C59.07 23.7 61.88 22.21 64.58 21.02C73.58 17.06 81.55 16.04 89.98 16.04C98.41 16.04 106.52 17.08 115.63 21.13C118.34 22.34 121.17 23.85 124.11 25.64C123.82 24.55 123.66 23.41 123.66 22.23C123.66 14.81 129.68 8.78998 137.1 8.78998C144.52 8.78998 150.54 14.81 150.54 22.23C150.54 29.08 145.4 34.73 138.77 35.55C141.47 37.6 143.92 39.67 146.1 41.75C151.18 46.62 154.81 51.56 156.94 56.53C160.51 64.89 161.09 77.86 160.81 79.87C160.69 80.43 160.18 81.41 159.57 82.39C158.19 79.44 156.89 77.02 155.83 75.78C149.1 67.88 142.84 68.47 126.13 70.04L125.25 70.12C117.06 70.89 105.63 71.85 89.8 72.46C73.96 71.84 62.54 70.89 54.35 70.12L53.47 70.04C36.75 68.47 30.5 67.89 23.77 75.78C22.75 76.97 21.51 79.25 20.19 82.04C19.68 81.19 19.28 80.38 19.18 79.9C18.88 78.09 18.76 64.71 22.91 56.83L22.87 56.84ZM65.71 203.46C64.22 204.43 63.05 204.33 62.32 204.08C61.59 203.83 61.24 203.37 61.19 203.24C60.94 202.4 60.17 199.83 57.64 198.94C57.1 198.75 56.59 198.68 56.1 198.68C54.44 198.68 53.14 199.59 52.5 200.03L52.21 200.23C47.9 202.98 44.3 203.47 42.37 203.02C41.23 202.75 40.78 202.19 40.54 201.8C38.17 197.82 41.42 192.39 45.89 188.41C50.63 190.95 56.53 193.79 59.37 194.88C64.49 196.84 68.82 197.4 72.34 197.58C70.39 200 67.9 202.07 65.7 203.48L65.71 203.46ZM138.9 201.78C138.66 202.17 138.22 202.73 137.07 203C135.15 203.46 131.54 202.97 127.23 200.21L126.95 200.02C126.13 199.45 124.2 198.1 121.81 198.93C119.28 199.81 118.51 202.38 118.26 203.22C118.21 203.36 117.86 203.81 117.13 204.07C116.41 204.32 115.24 204.42 113.74 203.45C111.55 202.03 109.05 199.96 107.1 197.55C110.62 197.37 114.95 196.81 120.07 194.85C122.91 193.77 128.81 190.92 133.55 188.38C138.02 192.37 141.27 197.8 138.9 201.77V201.78ZM164.94 159.32C163.02 160.06 159.4 157.74 157.16 155.05C158.75 145.98 157.39 135.98 156.46 130.28C156.29 129.25 154.25 120.6 154.24 122.32C154.19 130.5 152.65 150.35 147.59 159.31C135.64 180.49 119.47 189.15 92.59 190.64C91.41 190.71 87.91 190.71 86.72 190.64C59.84 189.14 43.67 180.49 31.72 159.31C26.66 150.34 25.11 130.49 25.07 122.32C25.06 120.6 23.02 129.25 22.85 130.28C21.92 136.02 20.55 146.14 22.19 155.27C19.93 157.86 16.45 160.04 14.59 159.31C9.37 157.28 7.33 149.47 8.71 136.74C9.82 126.48 17.8 108.98 17.88 108.81C17.93 108.7 17.98 108.59 18.02 108.47C21.47 98.55 27.34 83.41 29.58 80.78C33.61 76.05 36.43 76.17 52.72 77.7L53.6 77.78C61.91 78.56 73.52 79.53 89.62 80.16C89.71 80.16 89.82 80.16 89.92 80.16C106.02 79.54 117.63 78.56 125.94 77.78L126.82 77.7C143.11 76.17 145.93 76.05 149.96 80.78C152.2 83.41 158.07 98.56 161.52 108.47C161.56 108.59 161.61 108.7 161.66 108.81C161.74 108.99 169.72 126.48 170.83 136.74C172.2 149.48 170.16 157.28 164.94 159.32Z" fill="black"/>
<path d="M137.07 35.67C144.493 35.67 150.51 29.6527 150.51 22.23C150.51 14.8073 144.493 8.78998 137.07 8.78998C129.647 8.78998 123.63 14.8073 123.63 22.23C123.63 29.6527 129.647 35.67 137.07 35.67Z" fill="white"/>
<path d="M43.1 35.67C50.5227 35.67 56.54 29.6527 56.54 22.23C56.54 14.8073 50.5227 8.78998 43.1 8.78998C35.6773 8.78998 29.66 14.8073 29.66 22.23C29.66 29.6527 35.6773 35.67 43.1 35.67Z" fill="white"/>
<path d="M43.1 30.98C47.9325 30.98 51.85 27.0625 51.85 22.23C51.85 17.3975 47.9325 13.48 43.1 13.48C38.2675 13.48 34.35 17.3975 34.35 22.23C34.35 27.0625 38.2675 30.98 43.1 30.98Z" fill="black"/>
<path d="M137.07 30.98C141.903 30.98 145.82 27.0625 145.82 22.23C145.82 17.3975 141.903 13.48 137.07 13.48C132.238 13.48 128.32 17.3975 128.32 22.23C128.32 27.0625 132.238 30.98 137.07 30.98Z" fill="black"/>
<path d="M149.37 103.74C149.37 91.04 143.47 80.93 134.28 77.03C132.16 77.19 129.71 77.42 126.82 77.69L125.94 77.77C122.43 78.1 118.29 78.46 113.52 78.82C105.38 83.3 98.14 91.65 97.13 101.52C101.5 103.69 104.79 107.48 104.79 111.24C104.79 116.67 98.72 120.32 89.69 120.32C80.66 120.32 74.59 116.67 74.59 111.24C74.59 107.44 77.96 103.6 82.41 101.44C81.36 91.6 74.14 83.29 66.03 78.82C61.26 78.46 57.12 78.1 53.61 77.77L52.73 77.69C49.84 77.42 47.39 77.2 45.27 77.03C36.07 80.93 30.18 91.04 30.18 103.74C30.18 117.47 42.5 128.8 56.23 128.8C56.7 128.8 57.16 128.76 57.63 128.73C52.34 134.74 49.17 142.25 49.17 150.43C49.17 170.12 67.4 186.08 89.88 186.08C112.36 186.08 130.59 170.12 130.59 150.43C130.59 142.26 127.42 134.75 122.14 128.74C122.54 128.76 122.94 128.8 123.34 128.8C137.07 128.8 149.39 117.47 149.39 103.74H149.37Z" fill="white"/>
<path d="M59.1 105.19C63.2974 105.19 66.7 101.787 66.7 97.59C66.7 93.3927 63.2974 89.99 59.1 89.99C54.9026 89.99 51.5 93.3927 51.5 97.59C51.5 101.787 54.9026 105.19 59.1 105.19Z" fill="black"/>
<path d="M120.18 105.19C124.377 105.19 127.78 101.787 127.78 97.59C127.78 93.3927 124.377 89.99 120.18 89.99C115.983 89.99 112.58 93.3927 112.58 97.59C112.58 101.787 115.983 105.19 120.18 105.19Z" fill="black"/>
<path d="M89.68 99.69C82.2 99.69 74.58 105.52 74.58 111.24C74.58 116.96 80.65 120.32 89.68 120.32C98.71 120.32 104.78 116.67 104.78 111.24C104.78 105.52 97.16 99.69 89.68 99.69ZM89.68 115.53C83.99 115.53 79.37 113.61 79.37 111.24C79.37 108.87 83.99 104.47 89.68 104.47C95.37 104.47 99.99 108.87 99.99 111.24C99.99 113.61 95.37 115.53 89.68 115.53Z" fill="black"/>
<path d="M89.68 115.53C83.99 115.53 79.37 113.61 79.37 111.24C79.37 108.87 83.99 104.47 89.68 104.47C95.37 104.47 99.99 108.87 99.99 111.24C99.99 113.61 95.37 115.53 89.68 115.53Z" fill="white"/>
</svg>
