<svg width="584" height="697" viewBox="0 0 584 697" fill="none" xmlns="http://www.w3.org/2000/svg">
<path d="M203.571 696.238C199.518 696.238 195.56 695.531 191.743 694.117C185.052 691.667 179.539 687.238 176.099 681.725C159.654 691.149 142.832 694.683 129.308 691.479C119.978 689.264 112.628 683.986 108.01 676.212C91.3762 648.316 111.12 615.474 138.026 595.259C141.701 592.479 146.696 592.149 150.701 594.317C156.874 596.484 181.565 588.898 193.487 585.223C214.691 578.72 225.246 575.751 233.115 578.72C266.005 591.254 275.712 610.055 265.628 641.437C259.597 659.013 244.33 676.966 224.681 689.641C218.084 693.929 210.78 696.096 203.618 696.096L203.571 696.238Z" fill="#121F42"/>
<path d="M377.587 696.238C370.425 696.238 363.121 694.07 356.524 689.782C336.875 677.107 321.608 659.154 315.671 641.814C305.492 610.196 315.199 591.395 348.09 578.861C355.959 575.893 366.467 578.861 387.718 585.364C399.687 589.039 424.519 596.626 430.551 594.411C434.603 592.102 439.457 592.573 443.179 595.353C470.085 615.568 489.829 648.411 473.195 676.306C468.577 684.081 461.179 689.358 451.896 691.573C438.373 694.777 421.504 691.243 405.106 681.819C401.666 687.285 396.153 691.714 389.462 694.211C385.645 695.625 381.64 696.285 377.634 696.285L377.587 696.238Z" fill="#121F42"/>
<path d="M179.869 654.442C181.377 654.442 182.979 654.678 184.675 655.29C192.591 658.023 195.041 666.175 195.843 668.861C196.031 669.52 197.256 671.122 199.895 672.112C202.015 672.913 206.35 673.667 211.864 670.086C223.691 662.452 238.157 649.023 243.199 634.275C248.806 616.793 247.157 609.772 225.623 601.338C221.429 601.479 209.319 605.201 200.319 607.982C177.23 615.05 159.889 619.856 147.544 617.924C131.758 631.353 119.837 650.39 128.13 664.337C128.978 665.751 130.58 667.777 134.633 668.719C142.879 670.699 155.507 667.164 167.523 659.484L168.465 658.824C170.633 657.316 174.638 654.536 179.774 654.536L179.869 654.442Z" fill="#F9C264"/>
<path d="M355.535 601.291C334 609.678 332.351 616.699 338.053 634.416C343.048 648.929 357.514 662.358 369.341 669.992C374.901 673.573 379.236 672.819 381.31 672.018C383.901 671.076 385.173 669.426 385.362 668.767C386.163 666.081 388.613 657.976 396.53 655.196C403.927 652.604 409.818 656.704 412.645 658.683L413.587 659.343C425.603 667.023 438.231 670.557 446.477 668.578C450.53 667.636 452.132 665.609 452.98 664.196C461.273 650.248 449.352 631.212 433.566 617.783C421.268 619.715 403.927 614.908 380.791 607.84C371.838 605.107 359.681 601.385 355.487 601.196L355.535 601.291Z" fill="#F9C264"/>
<path d="M549.153 434.014C545.619 401.265 520.174 345.475 519.891 344.91C519.703 344.533 519.562 344.203 519.467 343.826C508.441 312.208 489.734 263.863 482.619 255.476C469.755 240.397 460.755 240.774 408.781 245.628L405.954 245.91C379.425 248.408 342.388 251.517 291.073 253.496C290.744 253.496 290.414 253.496 290.131 253.496C238.77 251.517 201.733 248.408 175.251 245.91L172.424 245.628C120.449 240.774 111.449 240.397 98.5855 255.428C91.4232 263.816 72.7162 312.161 61.69 343.779C61.5486 344.156 61.4073 344.533 61.2659 344.863C61.0303 345.428 35.538 401.218 32.004 433.967C27.6218 474.584 34.1243 499.511 50.7579 505.966C56.6951 508.275 67.8157 501.349 75.0252 493.056C69.7477 463.935 74.1299 431.658 77.0985 413.375C77.6168 410.077 84.1195 382.464 84.1666 387.977C84.308 413.941 89.2084 476.846 105.229 505.637C105.277 505.731 105.324 505.872 105.418 506.014C143.539 573.584 195.136 601.196 280.848 605.955C284.618 606.144 295.786 606.144 299.555 605.955C385.268 601.196 436.865 573.584 474.985 506.014C475.033 505.919 475.127 505.778 475.174 505.637C491.148 476.893 496.048 413.988 496.237 387.977C496.237 382.512 502.787 410.077 503.305 413.375C506.274 431.564 510.609 463.464 505.52 492.349C512.682 500.925 524.227 508.322 530.352 505.966C546.986 499.464 553.489 474.584 549.106 433.967L549.153 434.014Z" fill="#3882BC"/>
<path d="M504.766 178.199C497.98 162.366 486.389 146.581 470.179 131.031C463.252 124.387 455.43 117.79 446.807 111.241C445.064 111.476 443.273 111.618 441.483 111.618C421.598 111.618 404.917 98.0471 400.063 79.6702C390.686 73.9687 381.639 69.1154 373.016 65.2986C343.943 52.3877 318.309 49.0421 291.215 49.0421C264.12 49.0421 238.911 52.2934 210.214 64.9216C201.591 68.6912 192.638 73.4503 183.308 79.0576C178.69 97.7643 161.868 111.618 141.748 111.618C140.099 111.618 138.497 111.523 136.942 111.335C127.517 118.45 119.695 124.811 113.004 131.031C97.5959 145.309 87.9361 158.738 77.1926 179.188C63.9517 204.303 64.3758 246.994 65.3182 252.743C65.6481 254.251 66.9202 256.842 68.5694 259.575C72.7632 250.669 76.7214 243.413 79.9727 239.596C101.46 214.387 121.392 216.272 174.732 221.266L177.513 221.549C203.617 223.999 240.089 227.062 290.602 228.994C341.116 227.015 377.54 223.952 403.692 221.549L406.472 221.266C459.765 216.272 479.745 214.387 501.232 239.596C504.624 243.554 508.771 251.282 513.153 260.706C515.132 257.596 516.734 254.439 517.111 252.648C518.007 246.193 516.169 204.869 504.766 178.199Z" fill="#35B597"/>
<path d="M258.466 189.366C264.504 189.366 269.398 184.472 269.398 178.434C269.398 172.397 264.504 167.502 258.466 167.502C252.428 167.502 247.534 172.397 247.534 178.434C247.534 184.472 252.428 189.366 258.466 189.366Z" fill="#121F42"/>
<path d="M323.351 189.366C329.389 189.366 334.283 184.472 334.283 178.434C334.283 172.397 329.389 167.502 323.351 167.502C317.313 167.502 312.419 172.397 312.419 178.434C312.419 184.472 317.313 189.366 323.351 189.366Z" fill="#121F42"/>
<path d="M579.075 440.611C575.258 405.365 545.337 341.611 542.415 335.203C539.871 327.946 532.803 307.92 524.745 287.8C533.839 279.413 541.426 265.606 542.934 257.455C544.771 247.607 542.698 200.109 528.891 167.832C521.258 149.926 508.771 132.398 491.666 115.387C503.069 103.136 510.09 86.7382 510.09 68.7383C510.09 30.9008 479.321 0.084198 441.436 0.084198C414.058 0.084198 390.451 16.2465 379.425 39.4767C345.875 25.3407 317.32 22.702 291.168 22.702C265.016 22.702 236.838 25.2936 203.57 39.194C192.497 16.1051 168.984 0.084198 141.701 0.084198C103.863 0.084198 73.0461 30.8537 73.0461 68.7383C73.0461 86.6911 80.02 102.995 91.3289 115.199C76.4859 129.665 65.5068 144.837 53.9151 166.843C36.7632 199.355 37.894 249.209 39.449 257.408C40.9098 265.277 48.025 278.47 56.6952 286.952C48.5433 307.355 41.2868 327.805 38.7422 335.203C35.8208 341.611 5.71066 411.443 1.94101 446.689C-3.80771 500.265 78.0409 496.213 86.6169 489.474C99.1039 515.72 111.968 566.327 131.57 583.008C110.837 602.798 469.896 602.657 449.069 582.819C468.671 566.139 484.504 527.171 496.944 500.83C508.63 510.16 584.777 494.186 579.028 440.564L579.075 440.611ZM77.2399 179.141C87.9834 158.738 97.643 145.261 113.052 130.984C119.743 124.811 127.565 118.403 136.989 111.288C115.596 108.885 98.9625 90.7434 98.9625 68.7383C98.9625 45.084 118.141 25.9061 141.795 25.9061C165.45 25.9061 184.628 45.084 184.628 68.7383C184.628 72.2723 184.157 75.7121 183.308 79.0576C192.638 73.4503 201.591 68.6912 210.214 64.9216C238.958 52.2934 264.356 49.0421 291.215 49.0421C318.074 49.0421 343.99 52.3406 373.016 65.2986C381.687 69.1625 390.687 73.9687 400.064 79.6702C399.168 76.1833 398.603 72.5551 398.603 68.7855C398.603 45.1312 417.781 25.9533 441.436 25.9533C465.09 25.9533 484.268 45.1312 484.268 68.7855C484.268 90.6492 467.87 108.649 446.713 111.288C455.336 117.838 463.158 124.434 470.085 131.078C486.294 146.628 497.886 162.366 504.672 178.246C516.075 204.916 517.912 246.287 517.017 252.696C516.64 254.486 515.038 257.596 513.059 260.753C508.677 251.329 504.483 243.601 501.138 239.643C479.65 214.434 459.718 216.319 406.378 221.313L403.598 221.596C377.446 224.046 341.021 227.109 290.508 229.041C239.995 227.062 203.57 223.999 177.418 221.596L174.638 221.313C121.298 216.319 101.366 214.434 79.8787 239.643C76.6273 243.46 72.6691 250.716 68.4754 259.622C66.8733 256.889 65.601 254.298 65.224 252.79C64.2816 247.041 63.9048 204.35 77.0985 179.235L77.2399 179.141ZM530.399 506.014C524.274 508.37 512.729 500.972 505.567 492.396C510.609 463.464 506.274 431.564 503.352 413.422C502.834 410.124 496.331 382.512 496.284 388.025C496.143 414.129 491.195 477.412 475.08 506.014C436.959 573.584 385.362 601.196 299.649 605.955C295.88 606.144 284.712 606.144 280.943 605.955C195.23 601.196 143.633 573.584 105.512 506.014C89.397 477.412 84.4494 414.082 84.308 388.025C84.308 382.559 77.7582 410.124 77.2399 413.422C74.2713 431.752 69.8891 464.029 75.1666 493.103C67.9571 501.349 27.7632 474.632 32.1454 434.014C35.6794 401.265 61.1246 345.475 61.4073 344.91C61.5486 344.533 61.7371 344.203 61.8314 343.826C72.8576 312.208 91.5646 263.863 98.7269 255.476C111.591 240.397 120.591 240.774 172.565 245.675L175.392 245.957C201.921 248.455 238.911 251.565 290.272 253.544C290.555 253.544 290.885 253.544 291.215 253.544C342.576 251.565 379.566 248.455 406.095 245.957L408.922 245.675C460.896 240.821 469.897 240.397 482.76 255.523C489.923 263.91 508.63 312.208 519.609 343.873C519.75 344.25 519.892 344.627 520.033 344.957C520.269 345.522 545.761 401.312 549.295 434.061C553.677 474.679 547.174 499.605 530.541 506.061L530.399 506.014Z" fill="#121F42"/>
<path d="M441.483 111.571C465.138 111.571 484.315 92.3939 484.315 68.7383C484.315 45.0827 465.138 25.9061 441.483 25.9061C417.827 25.9061 398.65 45.0827 398.65 68.7383C398.65 92.3939 417.827 111.571 441.483 111.571Z" fill="white"/>
<path d="M141.748 111.571C165.404 111.571 184.581 92.3939 184.581 68.7383C184.581 45.0827 165.404 25.9061 141.748 25.9061C118.092 25.9061 98.9153 45.0827 98.9153 68.7383C98.9153 92.3939 118.092 111.571 141.748 111.571Z" fill="white"/>
<path d="M141.748 96.6335C157.154 96.6335 169.643 84.1444 169.643 68.7383C169.643 53.3323 157.154 40.8433 141.748 40.8433C126.342 40.8433 113.853 53.3323 113.853 68.7383C113.853 84.1444 126.342 96.6335 141.748 96.6335Z" fill="#121F42"/>
<path d="M441.483 96.6335C456.889 96.6335 469.378 84.1444 469.378 68.7383C469.378 53.3323 456.889 40.8433 441.483 40.8433C426.076 40.8433 413.587 53.3323 413.587 68.7383C413.587 84.1444 426.076 96.6335 441.483 96.6335Z" fill="#121F42"/>
<path d="M480.687 328.747C480.687 288.224 461.886 255.994 432.53 243.554C425.744 244.072 417.969 244.779 408.734 245.675L405.907 245.957C394.692 246.994 381.498 248.172 366.278 249.303C340.315 263.58 317.225 290.203 313.974 321.727C327.922 328.653 338.383 340.716 338.383 352.732C338.383 370.072 319.016 381.711 290.225 381.711C261.435 381.711 242.068 370.072 242.068 352.732C242.068 340.622 252.811 328.371 267.042 321.491C263.696 290.109 240.654 263.58 214.785 249.35C199.565 248.219 186.371 247.041 175.157 246.004L172.329 245.722C163.094 244.873 155.319 244.167 148.533 243.601C119.177 256.041 100.376 288.271 100.376 328.795C100.376 372.569 139.675 408.71 183.45 408.71C184.958 408.71 186.418 408.569 187.926 408.475C171.057 427.653 160.926 451.637 160.926 477.694C160.926 540.505 219.073 591.395 290.791 591.395C362.508 591.395 420.655 540.458 420.655 477.694C420.655 451.637 410.524 427.7 393.702 408.522C394.974 408.569 396.247 408.71 397.519 408.71C441.294 408.71 480.593 372.569 480.593 328.795L480.687 328.747Z" fill="white"/>
<path d="M192.78 333.365C206.156 333.365 217 322.522 217 309.145C217 295.769 206.156 284.926 192.78 284.926C179.403 284.926 168.56 295.769 168.56 309.145C168.56 322.522 179.403 333.365 192.78 333.365Z" fill="#121F42"/>
<path d="M387.624 333.365C401 333.365 411.844 322.522 411.844 309.145C411.844 295.769 401 284.926 387.624 284.926C374.248 284.926 363.404 295.769 363.404 309.145C363.404 322.522 374.248 333.365 387.624 333.365Z" fill="#121F42"/>
<path d="M290.32 315.836C266.477 315.836 242.162 334.449 242.162 352.684C242.162 370.92 261.529 381.663 290.32 381.663C319.11 381.663 338.477 370.025 338.477 352.684C338.477 334.449 314.163 315.836 290.32 315.836ZM290.32 366.396C272.178 366.396 257.429 360.271 257.429 352.732C257.429 345.192 272.178 331.151 290.32 331.151C308.461 331.151 323.21 345.192 323.21 352.732C323.21 360.271 308.461 366.396 290.32 366.396Z" fill="#121F42"/>
<path d="M290.32 366.349C272.178 366.349 257.429 360.224 257.429 352.685C257.429 345.145 272.178 331.103 290.32 331.103C308.461 331.103 323.21 345.145 323.21 352.685C323.21 360.224 308.461 366.349 290.32 366.349Z" fill="#F9C264"/>
<path d="M499.206 361.967H81.999V618.913H499.206V361.967Z" fill="white"/>
<path d="M487.425 373.747V607.133H93.7791V373.747H487.425ZM510.986 350.187H70.2188V630.693H510.986V350.187Z" fill="#121F42"/>
<path d="M535.111 515.296C521.682 515.296 502.598 512.092 486.671 500.265C470.226 488.061 460.519 469.637 457.881 445.511C455.053 419.407 468.53 397.025 492.326 388.449C492.656 388.307 492.986 388.213 493.363 388.119C513.672 382.841 523.473 384.868 539.164 391.841C583.787 411.679 586.285 458.988 581.337 481.228C578.321 494.893 564.609 511.008 546.892 514.354C543.923 514.919 539.871 515.296 535.111 515.296ZM499.865 410.784C486.577 415.778 479.65 427.794 481.347 442.967C483.232 460.307 489.781 473.218 500.713 481.323C516.216 492.82 536.619 492.254 542.557 491.171C550.614 489.663 557.352 480.569 558.342 476.139C558.436 475.668 568.002 430.433 529.598 413.375C518.808 408.569 514.284 407.108 499.865 410.784Z" fill="#121F42"/>
<path d="M48.9674 515.296C44.2082 515.296 40.1559 514.919 37.1873 514.354C19.4699 511.055 5.75763 494.94 2.74191 481.228C-2.20576 458.988 0.291693 411.679 44.915 391.841C60.6062 384.868 70.4073 382.794 90.7163 388.119C91.0461 388.213 91.4231 388.307 91.7529 388.449C115.502 397.025 129.025 419.454 126.198 445.511C123.559 469.637 113.9 488.061 97.4075 500.265C81.4807 512.092 62.4439 515.296 48.9674 515.296ZM25.7368 476.139C26.7264 480.569 33.4646 489.663 41.5223 491.171C47.4595 492.254 67.8156 492.82 83.3655 481.323C94.3446 473.171 100.847 460.26 102.732 442.92C104.381 427.747 97.4545 415.778 84.2136 410.737C69.7947 407.061 65.2711 408.522 54.4805 413.328C16.0771 430.386 25.6426 475.621 25.7368 476.092V476.139Z" fill="#121F42"/>
<path d="M499.865 410.784C486.577 415.778 479.65 427.794 481.347 442.967C483.232 460.307 489.781 473.218 500.713 481.322C516.216 492.82 536.619 492.254 542.557 491.171C550.614 489.663 557.352 480.569 558.342 476.139C558.436 475.668 568.002 430.433 529.598 413.375C518.808 408.569 514.284 407.108 499.865 410.784Z" fill="#3882BC"/>
<path d="M25.737 476.139C26.7265 480.569 33.4648 489.663 41.5225 491.171C47.4597 492.254 67.8158 492.82 83.3656 481.323C94.3448 473.171 100.847 460.26 102.732 442.92C104.381 427.747 97.4547 415.778 84.2138 410.737C69.7949 407.061 65.2713 408.522 54.4806 413.328C16.0773 430.386 25.6428 475.621 25.737 476.092V476.139Z" fill="#3882BC"/>
</svg>
