<svg width="802" height="890" viewBox="0 0 802 890" fill="none" xmlns="http://www.w3.org/2000/svg">
<path d="M659.472 433.972C655.938 401.224 630.493 345.434 630.21 344.868C630.022 344.491 629.88 344.161 629.786 343.784C618.76 312.167 600.053 263.821 592.938 255.434C580.074 240.356 571.074 240.733 519.1 245.586L516.272 245.869C489.743 248.366 452.707 251.476 401.392 253.455C401.062 253.455 400.732 253.455 400.45 253.455C349.088 251.476 312.051 248.366 285.569 245.869L282.742 245.586C230.768 240.733 221.768 240.356 208.904 255.387C201.742 263.774 183.035 312.12 172.009 343.737C171.867 344.114 171.726 344.491 171.585 344.821C171.349 345.386 145.857 401.177 142.323 433.925C137.94 474.543 144.443 499.469 161.077 505.925C167.014 508.234 178.134 501.307 185.344 493.014C180.066 463.894 184.448 431.616 187.417 413.334C187.935 410.035 194.438 382.423 194.485 387.936C194.627 413.899 199.527 476.805 215.548 505.595C215.595 505.689 215.642 505.831 215.737 505.972C253.857 573.542 305.454 601.155 391.167 605.914C394.937 606.102 406.104 606.102 409.874 605.914C495.586 601.155 547.184 573.542 585.304 505.972C585.351 505.878 585.445 505.736 585.493 505.595C601.466 476.852 606.367 413.946 606.556 387.936C606.556 382.47 613.105 410.035 613.624 413.334C616.592 431.522 620.927 463.423 615.838 492.307C623.001 500.883 634.545 508.281 640.671 505.925C657.305 499.422 663.807 474.543 659.425 433.925L659.472 433.972Z" fill="#3882BC"/>
<path d="M615.085 178.157C608.299 162.325 596.707 146.539 580.498 130.99C573.571 124.346 565.749 117.749 557.126 111.199C555.383 111.435 553.592 111.576 551.801 111.576C531.917 111.576 515.236 98.0056 510.382 79.6288C501.005 73.9272 491.958 69.0739 483.335 65.2572C454.262 52.3462 428.628 49.0006 401.534 49.0006C374.439 49.0006 349.23 52.2519 320.533 64.8801C311.91 68.6497 302.957 73.4089 293.627 79.0162C289.009 97.7229 272.187 111.576 252.067 111.576C250.418 111.576 248.815 111.482 247.26 111.294C237.836 118.409 230.014 124.77 223.323 130.99C207.915 145.267 198.255 158.696 187.511 179.147C174.271 204.262 174.695 246.953 175.637 252.701C175.967 254.209 177.239 256.801 178.888 259.534C183.082 250.628 187.04 243.371 190.292 239.555C211.779 214.345 231.711 216.23 285.051 221.225L287.831 221.508C313.936 223.958 350.408 227.021 400.921 228.953C451.434 226.974 487.859 223.911 514.011 221.508L516.791 221.225C570.084 216.23 590.063 214.345 611.55 239.555C614.943 243.513 619.09 251.24 623.472 260.665C625.451 257.555 627.053 254.398 627.43 252.607C628.325 246.152 626.488 204.827 615.085 178.157Z" fill="#35B597"/>
<path d="M368.784 189.372C374.822 189.372 379.717 184.477 379.717 178.44C379.717 172.402 374.822 167.508 368.784 167.508C362.747 167.508 357.853 172.402 357.853 178.44C357.853 184.477 362.747 189.372 368.784 189.372Z" fill="#121F42"/>
<path d="M433.67 189.372C439.707 189.372 444.602 184.477 444.602 178.44C444.602 172.402 439.707 167.508 433.67 167.508C427.632 167.508 422.738 172.402 422.738 178.44C422.738 184.477 427.632 189.372 433.67 189.372Z" fill="#121F42"/>
<path d="M324.161 646.814C319.402 649.877 315.68 649.594 313.371 648.793C311.062 647.992 309.931 646.532 309.789 646.108C308.988 643.422 306.538 635.223 298.433 632.395C296.737 631.783 295.088 631.547 293.533 631.547C288.255 631.547 284.062 634.421 282.035 635.835L281.14 636.448C267.381 645.212 255.883 646.814 249.758 645.353C246.129 644.505 244.669 642.715 243.915 641.442C236.375 628.767 246.695 611.427 260.972 598.705C276.098 606.809 294.899 615.856 303.946 619.343C320.297 625.563 334.104 627.354 345.318 627.966C339.098 635.694 331.135 642.291 324.161 646.814Z" fill="#F9C264"/>
<path d="M557.644 641.442C556.89 642.715 555.477 644.458 551.801 645.353C545.676 646.814 534.178 645.259 520.419 636.448L519.524 635.835C516.885 633.997 510.759 629.71 503.126 632.348C495.068 635.175 492.571 643.375 491.77 646.06C491.628 646.484 490.497 647.945 488.141 648.746C485.88 649.547 482.11 649.877 477.304 646.767C470.33 642.243 462.366 635.647 456.146 627.919C467.361 627.353 481.168 625.563 497.518 619.296C506.566 615.856 525.414 606.762 540.492 598.657C554.77 611.38 565.09 628.673 557.55 641.396L557.644 641.442Z" fill="#F9C264"/>
<path d="M683.833 431.381C680.017 396.135 655.655 341.664 652.734 335.256C650.189 327.999 643.121 307.973 635.064 287.853C644.158 279.465 651.744 265.659 653.252 257.507C655.09 247.659 653.017 200.162 639.21 167.885C631.577 149.979 619.09 132.45 601.985 115.44C613.388 103.189 620.409 86.7911 620.409 68.7912C620.409 30.9537 589.639 0.137039 551.754 0.137039C524.377 0.137039 500.77 16.2993 489.743 39.5296C456.194 25.3935 427.638 22.7547 401.486 22.7547C375.334 22.7547 347.156 25.3463 313.889 39.2467C302.816 16.1578 279.302 0.137039 252.02 0.137039C214.182 0.137039 183.365 30.9065 183.365 68.7912C183.365 86.7439 190.339 103.047 201.648 115.252C186.805 129.717 175.825 144.89 164.234 166.895C147.082 199.408 148.213 249.261 149.768 257.46C151.228 265.329 158.344 278.523 167.014 287.005C158.862 307.408 151.605 327.858 149.061 335.256C146.139 341.664 121.778 396.135 117.961 431.381C112.212 484.956 123.71 517.752 152.218 528.825C155.988 530.286 159.804 530.946 163.621 530.946C174.365 530.946 184.873 525.668 193.496 518.977C205.983 545.223 222.334 566.38 241.936 583.014C221.203 602.804 208.716 630.181 222.899 653.977C227.517 661.704 234.868 666.982 244.103 669.196C257.297 672.306 273.601 668.961 289.575 659.961C293.015 665.144 298.339 669.338 304.795 671.694C308.612 673.107 312.57 673.767 316.575 673.767C323.69 673.767 330.947 671.599 337.496 667.359C353.141 657.275 365.816 643.798 373.261 629.945C379.151 630.275 385.183 630.416 391.261 630.416H409.968C416.235 630.416 422.361 630.228 428.392 629.898C435.79 643.752 448.513 657.275 464.157 667.359C470.707 671.599 477.963 673.767 485.078 673.767C489.084 673.767 493.042 673.06 496.859 671.694C503.267 669.338 508.592 665.144 512.079 659.961C528.005 668.961 544.356 672.306 557.55 669.196C566.833 666.982 574.137 661.751 578.754 653.977C592.985 630.087 580.356 602.663 559.529 582.825C579.131 566.145 595.482 544.893 607.922 518.6C619.608 527.93 635.064 534.527 649.671 528.825C678.132 517.752 689.676 484.956 683.928 431.381H683.833ZM187.511 179.147C198.255 158.743 207.915 145.267 223.323 130.99C230.014 124.817 237.836 118.409 247.26 111.294C225.868 108.89 209.234 90.7491 209.234 68.744C209.234 45.0897 228.412 25.9118 252.067 25.9118C275.721 25.9118 294.899 45.0897 294.899 68.744C294.899 72.278 294.428 75.7178 293.58 79.0633C302.91 73.456 311.863 68.6969 320.486 64.9273C349.23 52.2991 374.628 49.0478 401.486 49.0478C428.345 49.0478 454.262 52.3463 483.288 65.3043C491.958 69.1682 500.958 73.9744 510.335 79.6759C509.44 76.189 508.874 72.5608 508.874 68.7912C508.874 45.1368 528.053 25.9589 551.707 25.9589C575.362 25.9589 594.54 45.1368 594.54 68.7912C594.54 90.6549 578.142 108.655 556.985 111.294C565.608 117.843 573.43 124.44 580.356 131.084C596.566 146.634 608.158 162.372 614.943 178.251C626.346 204.921 628.184 246.293 627.289 252.701C626.912 254.492 625.31 257.602 623.331 260.759C618.948 251.335 614.755 243.607 611.409 239.649C589.922 214.44 569.99 216.324 516.649 221.319L513.869 221.602C487.717 224.052 451.293 227.115 400.78 229.047C350.266 227.068 313.842 224.005 287.69 221.602L284.91 221.319C231.569 216.324 211.637 214.44 190.15 239.649C186.899 243.466 182.941 250.722 178.747 259.628C177.145 256.895 175.873 254.303 175.496 252.795C174.553 247.047 174.176 204.356 187.37 179.241L187.511 179.147ZM324.161 646.814C319.402 649.877 315.68 649.594 313.371 648.793C311.062 647.992 309.931 646.532 309.79 646.108C308.988 643.422 306.538 635.223 298.433 632.395C296.737 631.783 295.088 631.547 293.533 631.547C288.255 631.547 284.062 634.422 282.035 635.835L281.14 636.448C267.381 645.212 255.883 646.814 249.758 645.354C246.129 644.505 244.669 642.715 243.915 641.442C236.375 628.767 246.695 611.427 260.973 598.705C276.098 606.809 294.899 615.856 303.947 619.343C320.297 625.563 334.104 627.354 345.319 627.966C339.099 635.694 331.135 642.291 324.161 646.814ZM557.644 641.49C556.89 642.762 555.477 644.505 551.801 645.401C545.676 646.861 534.178 645.306 520.419 636.495L519.524 635.882C516.885 634.045 510.759 629.757 503.126 632.395C495.068 635.223 492.571 643.422 491.77 646.108C491.628 646.532 490.497 647.992 488.141 648.793C485.879 649.594 482.11 649.924 477.303 646.814C470.33 642.291 462.366 635.694 456.146 627.966C467.361 627.401 481.167 625.61 497.518 619.343C506.565 615.903 525.414 606.809 540.492 598.705C554.77 611.427 565.089 628.72 557.55 641.442L557.644 641.49ZM640.718 506.019C634.592 508.375 623.048 500.977 615.885 492.401C620.927 463.47 616.592 431.569 613.671 413.428C613.152 410.13 606.65 382.517 606.603 388.03C606.461 414.135 601.514 477.417 585.398 506.019C547.278 573.59 495.681 601.202 409.968 605.961C406.198 606.15 395.031 606.15 391.261 605.961C305.549 601.202 253.952 573.59 215.831 506.019C199.716 477.417 194.768 414.088 194.627 388.03C194.627 382.564 188.077 410.13 187.558 413.428C184.59 431.758 180.208 464.035 185.485 493.108C178.276 501.354 167.155 508.328 161.218 506.019C144.584 499.517 138.082 474.637 142.464 434.02C145.998 401.271 171.443 345.481 171.726 344.915C171.867 344.538 172.056 344.209 172.15 343.832C183.176 312.214 201.883 263.869 209.046 255.481C221.909 240.403 230.91 240.78 282.884 245.68L285.711 245.963C312.24 248.46 349.23 251.57 400.591 253.549C400.874 253.549 401.204 253.549 401.534 253.549C452.895 251.57 489.885 248.46 516.414 245.963L519.241 245.68C571.215 240.827 580.215 240.403 593.079 255.528C600.241 263.916 618.948 312.214 629.927 343.879C630.069 344.256 630.21 344.633 630.352 344.962C630.587 345.528 656.079 401.318 659.613 434.067C663.996 474.684 657.493 499.611 640.859 506.066L640.718 506.019Z" fill="#121F42"/>
<path d="M551.802 111.576C575.457 111.576 594.634 92.3996 594.634 68.744C594.634 45.0884 575.457 25.9118 551.802 25.9118C528.146 25.9118 508.969 45.0884 508.969 68.744C508.969 92.3996 528.146 111.576 551.802 111.576Z" fill="white"/>
<path d="M252.067 111.576C275.722 111.576 294.899 92.3996 294.899 68.744C294.899 45.0884 275.722 25.9118 252.067 25.9118C228.411 25.9118 209.234 45.0884 209.234 68.744C209.234 92.3996 228.411 111.576 252.067 111.576Z" fill="white"/>
<path d="M252.067 96.6392C267.473 96.6392 279.962 84.1501 279.962 68.744C279.962 53.3379 267.473 40.8489 252.067 40.8489C236.661 40.8489 224.171 53.3379 224.171 68.744C224.171 84.1501 236.661 96.6392 252.067 96.6392Z" fill="#121F42"/>
<path d="M551.801 96.6392C567.207 96.6392 579.697 84.1501 579.697 68.744C579.697 53.3379 567.207 40.8489 551.801 40.8489C536.395 40.8489 523.906 53.3379 523.906 68.744C523.906 84.1501 536.395 96.6392 551.801 96.6392Z" fill="#121F42"/>
<path d="M591.053 328.753C591.053 288.23 572.252 256 542.895 243.56C536.11 244.078 528.335 244.785 519.099 245.68L516.272 245.963C505.057 247 491.864 248.178 476.644 249.309C450.68 263.586 427.591 290.209 424.34 321.732C438.287 328.659 448.748 340.722 448.748 352.737C448.748 370.078 429.382 381.716 400.591 381.716C371.8 381.716 352.434 370.078 352.434 352.737C352.434 340.627 363.177 328.376 377.408 321.497C374.062 290.115 351.02 263.586 325.151 249.356C309.931 248.225 296.737 247.047 285.522 246.01L282.695 245.727C273.459 244.879 265.684 244.172 258.899 243.607C229.543 256.047 210.742 288.277 210.742 328.8C210.742 372.575 250.04 408.716 293.815 408.716C295.323 408.716 296.784 408.575 298.292 408.48C281.423 427.658 271.292 451.643 271.292 477.7C271.292 540.511 329.439 591.401 401.156 591.401C472.874 591.401 531.021 540.464 531.021 477.7C531.021 451.643 520.89 427.706 504.068 408.528C505.34 408.575 506.612 408.716 507.885 408.716C551.66 408.716 590.958 372.575 590.958 328.8L591.053 328.753Z" fill="white"/>
<path d="M303.098 333.324C316.475 333.324 327.318 322.48 327.318 309.104C327.318 295.728 316.475 284.884 303.098 284.884C289.722 284.884 278.878 295.728 278.878 309.104C278.878 322.48 289.722 333.324 303.098 333.324Z" fill="#121F42"/>
<path d="M497.942 333.324C511.319 333.324 522.162 322.48 522.162 309.104C522.162 295.728 511.319 284.884 497.942 284.884C484.566 284.884 473.722 295.728 473.722 309.104C473.722 322.48 484.566 333.324 497.942 333.324Z" fill="#121F42"/>
<path d="M400.638 315.795C376.795 315.795 352.481 334.407 352.481 352.643C352.481 370.878 371.848 381.622 400.638 381.622C429.429 381.622 448.796 369.983 448.796 352.643C448.796 334.407 424.481 315.795 400.638 315.795ZM400.638 366.355C382.497 366.355 367.748 360.229 367.748 352.69C367.748 345.151 382.497 331.109 400.638 331.109C418.78 331.109 433.529 345.151 433.529 352.69C433.529 360.229 418.78 366.355 400.638 366.355Z" fill="#121F42"/>
<path d="M400.638 366.355C382.497 366.355 367.748 360.229 367.748 352.69C367.748 345.151 382.497 331.109 400.638 331.109C418.78 331.109 433.529 345.151 433.529 352.69C433.529 360.229 418.78 366.355 400.638 366.355Z" fill="#F9C264"/>
<path d="M789.855 407.161H11.9868V877.797H789.855V407.161Z" fill="white"/>
<path d="M778.075 418.941V866.017H23.7669V418.941H778.075ZM801.635 395.381H0.206543V889.577H801.635V395.381Z" fill="#121F42"/>
<path d="M201.176 491.082C189.396 491.082 179.265 486.888 172.857 484.25C171.443 483.684 170.124 483.119 168.993 482.695C151.464 476.428 111.6 440.145 114.191 398.491C116.453 361.407 148.165 352.784 175.542 349.439C216.82 344.397 233.218 364.894 239.297 377.57C252.255 404.381 261.632 453.15 234.396 477.653C223.04 487.878 211.496 491.082 201.223 491.082H201.176ZM187.982 372.198C185.061 372.198 181.857 372.386 178.323 372.81C142.04 377.24 138.364 388.172 137.657 399.905C135.867 428.789 166.778 456.873 176.909 460.501C178.37 461.02 180.019 461.679 181.81 462.433C195.098 467.899 206.218 471.245 218.564 460.077C234.915 445.376 227.894 408.245 217.998 387.748C216.019 383.648 210.459 372.151 187.982 372.151V372.198Z" fill="#121F42"/>
<path d="M592.042 491.082C581.77 491.082 570.225 487.878 558.822 477.653C531.633 453.15 541.01 404.381 553.921 377.57C560.047 364.894 576.445 344.397 617.676 349.439C645.053 352.784 676.765 361.407 679.027 398.491C681.571 440.192 641.754 476.428 624.225 482.695C623.095 483.119 621.775 483.637 620.361 484.25C613.953 486.888 603.775 491.082 592.042 491.082ZM605.189 372.198C582.665 372.198 577.152 383.695 575.173 387.795C565.277 408.292 558.256 445.423 574.607 460.124C586.953 471.244 598.121 467.946 611.361 462.48C613.199 461.726 614.848 461.067 616.262 460.548C626.393 456.92 657.304 428.836 655.514 399.952C654.807 388.219 651.131 377.287 614.848 372.858C611.314 372.434 608.11 372.245 605.189 372.245V372.198Z" fill="#121F42"/>
<path d="M187.983 372.198C185.061 372.198 181.857 372.386 178.323 372.81C142.04 377.24 138.364 388.172 137.658 399.905C135.867 428.789 166.778 456.873 176.909 460.501C178.37 461.019 180.019 461.679 181.81 462.433C195.098 467.899 206.218 471.245 218.564 460.077C234.915 445.376 227.894 408.245 217.998 387.748C216.019 383.648 210.459 372.151 187.983 372.151V372.198Z" fill="#3882BC"/>
<path d="M605.189 372.198C582.665 372.198 577.152 383.695 575.173 387.795C565.278 408.292 558.257 445.423 574.608 460.124C586.953 471.244 598.121 467.946 611.362 462.48C613.2 461.726 614.849 461.066 616.262 460.548C626.393 456.92 657.304 428.836 655.514 399.952C654.807 388.219 651.132 377.287 614.849 372.858C611.315 372.433 608.11 372.245 605.189 372.245V372.198Z" fill="#3882BC"/>
</svg>
