<svg width="890" height="864" viewBox="0 0 890 864" fill="none" xmlns="http://www.w3.org/2000/svg">
<path d="M353.916 713.625C329.178 723.096 303.261 743.688 310 769.18C314.523 786.284 338.225 791.279 363.953 783.598C368.194 782.326 373.236 779.216 373.33 789.3C373.424 799.384 385.958 811.305 403.628 805.98C421.299 800.656 445.048 784.164 455.273 769.509C500.744 716.405 465.074 721.73 442.409 704.719C433.456 697.981 400.094 689.547 353.963 713.625H353.916Z" fill="#F9C264"/>
<path d="M395.147 819.881C387.325 819.881 379.88 817.572 373.754 813.048C368.099 808.902 364 803.247 362.068 797.169C343.785 801.551 326.68 800.232 314.523 793.399C305.994 788.593 300.199 781.337 297.843 772.384C289.455 740.719 317.303 714.379 348.78 702.128C397.032 677.201 435.718 683.986 449.948 694.683C454.048 697.745 459.184 700.149 464.084 702.458C474.498 707.311 486.325 712.824 489.247 726.159C492.074 739.164 485.1 754.007 465.215 777.284C453.671 793.399 427.33 811.965 407.304 818.043C403.251 819.268 399.152 819.881 395.147 819.881ZM369.607 769.604C372.435 769.604 375.592 770.263 378.607 772.431C385.77 777.52 385.911 786.284 385.911 789.159C385.911 789.63 386.665 791.373 388.691 792.834C390.717 794.248 394.346 795.614 399.953 793.965C414.89 789.441 436.707 774.08 444.906 762.347C445.142 762.018 445.425 761.688 445.66 761.358C465.451 738.222 464.65 731.766 464.603 731.483C463.66 730.023 457.535 727.148 453.435 725.264C447.592 722.531 440.995 719.468 434.775 714.803C431.006 711.976 402.78 702.316 359.712 724.792C359.288 725.028 358.817 725.217 358.393 725.405C337.848 733.274 317.727 749.295 322.11 765.975C322.487 767.436 323.382 769.604 326.775 771.489C332.429 774.693 344.256 776.389 360.325 771.583L361.408 771.206C363.105 770.64 366.12 769.604 369.56 769.604H369.607Z" fill="#151F3F"/>
<path d="M649.457 768.897C671.227 783.975 691.536 810.174 678.908 833.31C670.473 848.813 646.206 848.059 623.07 834.488C619.253 832.226 615.106 828.032 612.609 837.786C610.111 847.54 595.08 856.163 579.247 846.786C563.98 837.739 544.19 815.734 537.781 799.101C506.257 736.714 539.619 750.331 565.724 739.211C576.043 734.829 610.441 734.546 649.504 768.897H649.457Z" fill="#F9C264"/>
<path d="M593.195 863.42C586.315 863.42 579.294 861.488 572.839 857.624C554.792 846.975 533.634 822.661 526.284 804.237C512.524 776.86 509.273 760.792 515.116 748.871C521.1 736.572 533.917 734.028 545.179 731.813C550.504 730.777 556.064 729.646 560.776 727.667C577.174 720.693 616.331 723.285 657.279 759.002C684.939 778.368 705.719 810.598 690.028 839.342C685.599 847.493 678.248 853.148 668.824 855.786C655.394 859.509 638.478 856.729 621.75 848.106C618.405 853.572 613.127 858.048 606.624 860.734C602.336 862.525 597.813 863.373 593.195 863.373V863.42ZM578.446 749.86C574.441 749.86 571.708 750.379 570.624 750.85C563.462 753.913 556.347 755.326 550.032 756.551C545.65 757.4 538.959 758.719 537.593 760.085C537.593 760.18 535.237 766.258 548.996 793.447C549.184 793.824 549.373 794.2 549.514 794.577C554.65 807.912 572.226 828.033 585.656 835.949C590.698 838.918 594.514 838.446 596.823 837.551C599.179 836.609 600.31 835.101 600.404 834.63C601.111 831.849 603.326 823.321 611.525 820.116C619.206 817.101 625.708 821.247 628.488 823.038L629.431 823.65C643.944 832.132 655.771 833.31 662.038 831.52C665.761 830.483 667.127 828.598 667.881 827.279C676.127 812.153 660.389 791.797 642.295 779.263C641.918 778.981 641.494 778.698 641.117 778.368C613.834 754.384 590.321 749.813 578.399 749.813L578.446 749.86Z" fill="#151F3F"/>
<path d="M471.105 763.714C471.105 763.714 436.896 742.51 432.655 740.955C428.414 739.4 365.696 697.934 352.974 673.903C340.251 649.871 337 639.034 327.764 589.887C318.529 540.788 326.445 492.113 326.445 492.113C326.445 492.113 326.351 441.506 361.22 390.616C396.042 339.679 415.833 331.527 415.833 331.527C415.833 331.527 433.692 328.606 472.755 343.213C511.818 357.774 574.017 384.632 574.017 384.632L673.818 417.051C673.818 417.051 765.939 444.239 777.578 448.574C789.217 452.909 809.903 500.642 807.735 551.579C806.557 578.955 798.406 616.463 789.783 642.285C778.709 675.458 749.494 719.044 746.714 716.075C740.777 709.667 712.175 738.834 712.175 738.834L668.023 758.106L606.059 779.263L496.126 770.735L471.058 763.761L471.105 763.714Z" fill="#3882BC"/>
<path d="M844.018 219.853C807.547 206.235 766.835 224.848 753.217 261.271C739.599 297.742 758.212 338.454 794.636 352.072C802.694 355.088 811.034 356.548 819.327 356.548C829.317 356.548 839.259 354.381 848.589 350.14C865.741 342.318 878.794 328.276 885.39 310.606C899.008 274.135 880.396 233.423 843.971 219.806L844.018 219.853Z" fill="#151F3F"/>
<path d="M555.357 112.136C518.933 98.5654 478.173 117.131 464.555 153.555C450.938 190.026 469.55 230.737 505.974 244.355C514.079 247.371 522.372 248.832 530.571 248.832C559.174 248.832 586.174 231.303 596.776 202.937C610.394 166.466 591.781 125.754 555.357 112.136Z" fill="#151F3F"/>
<path d="M819.374 330.02C843.707 330.02 863.432 310.294 863.432 285.962C863.432 261.63 843.707 241.905 819.374 241.905C795.042 241.905 775.316 261.63 775.316 285.962C775.316 310.294 795.042 330.02 819.374 330.02Z" fill="white"/>
<path d="M819.374 314.659C835.223 314.659 848.071 301.811 848.071 285.962C848.071 270.114 835.223 257.266 819.374 257.266C803.526 257.266 790.678 270.114 790.678 285.962C790.678 301.811 803.526 314.659 819.374 314.659Z" fill="#151F3F"/>
<path d="M810.468 515.956C821.919 516.992 831.673 504.883 837.704 497.249C866.353 460.825 855.657 424.354 854.479 413.469C850.898 380.108 836.95 346.135 799.489 291.24C762.028 236.345 725.698 214.905 686.447 200.298C647.242 185.644 605.729 178.057 541.456 194.973C477.184 211.889 444.435 228.429 419.838 251.282C395.241 274.135 378.843 318.522 377.618 325.543C376.393 332.564 377.241 346.041 385.911 357.538C397.126 355.04 410.037 323.753 431.618 324.601C455.979 325.543 465.781 331.81 474.922 334.638C543.483 355.747 565.723 383.03 627.734 401.878C699.405 423.695 770.463 431.564 794.07 462.946C808.96 482.689 794.259 514.495 810.421 516.003L810.468 515.956Z" fill="#35B597"/>
<path d="M603.656 337.088C609.875 337.088 614.917 332.046 614.917 325.826C614.917 319.606 609.875 314.564 603.656 314.564C597.436 314.564 592.394 319.606 592.394 325.826C592.394 332.046 597.436 337.088 603.656 337.088Z" fill="#151F3F"/>
<path d="M666.138 360.412C672.358 360.412 677.4 355.37 677.4 349.151C677.4 342.931 672.358 337.889 666.138 337.889C659.918 337.889 654.876 342.931 654.876 349.151C654.876 355.37 659.918 360.412 666.138 360.412Z" fill="#151F3F"/>
<path d="M810.468 515.956C819.139 515.108 834.029 503.375 837.704 497.249C841.38 491.124 856.081 447.019 854.479 413.469C851.746 355.135 804.578 298.685 799.489 291.24C762.028 236.345 725.698 214.905 686.447 200.298C647.242 185.644 605.729 178.057 541.456 194.973C477.184 211.889 454.283 220.56 419.838 251.282C394.817 273.664 378.843 318.522 377.618 325.543C376.393 332.564 379.927 351.177 385.911 357.538" stroke="#151F3F" stroke-width="5.73" stroke-linecap="round" stroke-linejoin="round"/>
<path d="M530.666 222.303C554.998 222.303 574.723 202.578 574.723 178.246C574.723 153.913 554.998 134.188 530.666 134.188C506.333 134.188 486.608 153.913 486.608 178.246C486.608 202.578 506.333 222.303 530.666 222.303Z" fill="white"/>
<path d="M530.666 206.942C546.514 206.942 559.362 194.094 559.362 178.246C559.362 162.397 546.514 149.549 530.666 149.549C514.817 149.549 501.969 162.397 501.969 178.246C501.969 194.094 514.817 206.942 530.666 206.942Z" fill="#121F42"/>
<path d="M819.374 330.02C843.707 330.02 863.432 310.294 863.432 285.962C863.432 261.63 843.707 241.905 819.374 241.905C795.042 241.905 775.316 261.63 775.316 285.962C775.316 310.294 795.042 330.02 819.374 330.02Z" fill="white"/>
<path d="M819.374 314.659C835.223 314.659 848.071 301.811 848.071 285.962C848.071 270.114 835.223 257.266 819.374 257.266C803.526 257.266 790.678 270.114 790.678 285.962C790.678 301.811 803.526 314.659 819.374 314.659Z" fill="#121F42"/>
<path d="M712.599 531.694C728.101 493.527 722.683 455.972 699.829 433.024C693.232 430.904 685.599 428.595 676.599 425.909L673.865 425.061C662.933 421.763 650.023 417.805 635.227 413.046C605.305 416.58 573.357 432.836 558.278 461.297C568.739 473.124 574.017 488.532 569.446 499.841C562.802 516.144 540.137 519.726 512.996 508.699C485.854 497.673 472.048 479.296 478.692 462.993C483.31 451.543 498.153 444.145 514.174 443.108C523.032 412.244 511.44 378.459 492.545 355.135C478.644 348.255 466.629 342.082 456.498 336.852L453.953 335.533C445.613 331.198 438.498 327.522 432.325 324.459C399.953 324.978 369.89 348.161 354.387 386.328C337.659 427.605 360.843 476.658 402.121 493.385C403.534 493.951 423.231 502.951 444.294 510.537C465.121 518.029 483.734 523.542 507.341 531.081C522.278 535.841 506.776 524.909 528.545 532.542C575.195 548.94 586.221 560.06 612.373 571.511C653.651 588.238 695.871 572.924 712.599 531.647V531.694Z" fill="white"/>
<path d="M555.687 493.055C552.954 500.359 536.603 500.924 519.074 494.422C501.592 487.872 489.624 476.705 492.309 469.401C495.042 462.097 514.268 453.899 531.749 460.448C549.231 466.998 558.373 485.752 555.687 493.055Z" fill="#151F3F" stroke="#151F3F" stroke-width="6.66" stroke-miterlimit="10"/>
<path d="M555.687 493.055C552.954 500.359 536.603 500.924 519.074 494.422C501.592 487.872 489.624 476.705 492.309 469.401C495.042 462.097 514.268 453.899 531.749 460.448C549.231 466.998 558.373 485.752 555.687 493.055Z" fill="#F9C264"/>
<path d="M815.51 471.993C803.871 439.998 783.987 434.626 730.882 420.302L728.054 419.548C702.044 412.527 665.855 402.396 616.473 386.093C568.504 366.019 534.53 349.999 510.262 338.266C505.598 336.004 501.215 333.883 497.069 331.857C456.545 312.02 434.21 301.041 408.105 321.774C362.068 358.292 332.005 406.543 318.811 465.302C306.183 521.516 312.685 574.244 312.968 576.458C313.157 577.966 313.675 579.333 314.335 580.605C324.607 664.856 377.853 737.562 462.812 769.274C466.44 770.64 477.184 774.74 480.812 776.012C542.682 797.452 605.399 795.944 656.572 775.871C733.992 749.955 791.479 706.981 820.458 582.113C820.646 581.264 820.741 580.416 820.788 579.568C821.118 564.914 822.39 490.982 815.51 472.04V471.993ZM795.625 577.636C772.442 676.353 732.531 723.708 648.892 751.792C600.452 766.541 550.692 770.169 497.587 754.761C488.446 752.122 473.838 746.75 465.215 742.745C389.822 707.641 350.759 650.814 337.989 575.987C338.084 575.044 338.084 574.102 337.989 573.16C337.942 572.641 331.769 522.458 343.408 470.72C355.33 417.757 382.33 374.265 423.749 341.423C436.472 331.339 444.105 333.884 485.995 354.428C490.142 356.454 494.571 358.622 499.283 360.931C523.928 372.852 558.467 389.156 607.237 409.511C607.52 409.653 607.85 409.747 608.132 409.841C658.363 426.381 695.117 436.7 721.505 443.815L724.332 444.569C776.117 458.564 784.882 461.438 791.856 480.568C795.672 491.076 796.379 543.144 795.625 577.589V577.636Z" fill="#151F3F"/>
<path d="M452.257 428.077C466.024 428.077 477.184 416.917 477.184 403.15C477.184 389.384 466.024 378.224 452.257 378.224C438.49 378.224 427.33 389.384 427.33 403.15C427.33 416.917 438.49 428.077 452.257 428.077Z" fill="#151F3F"/>
<path d="M635.556 498.097C649.323 498.097 660.483 486.937 660.483 473.171C660.483 459.404 649.323 448.244 635.556 448.244C621.79 448.244 610.63 459.404 610.63 473.171C610.63 486.937 621.79 498.097 635.556 498.097Z" fill="#151F3F"/>
<path d="M304.534 384.114L354.105 364.041L454.189 621.458L406.786 644.217L304.534 384.114Z" fill="white"/>
<path d="M347.461 379.449L439.252 615.568L413.1 628.102L319.754 390.663L347.461 379.449ZM360.749 348.632L289.267 377.564L400.424 660.285L469.079 627.348L360.702 348.632H360.749Z" fill="#121F42"/>
<path d="M433.405 15.4194L16.1511 177.679L123.557 453.869L540.811 291.61L433.405 15.4194Z" fill="white"/>
<path d="M426.529 30.9007L525.388 285.161L130.093 438.867L31.2337 184.607L426.529 30.9007ZM439.959 0.414062L0.746582 171.178L116.663 469.354L555.875 298.59L439.959 0.414062Z" fill="#121F42"/>
<path d="M346.471 454.888C346.471 454.888 382.424 435.475 409.094 460.024C429.215 478.542 418 511.668 402.545 531.647C387.089 551.626 354.811 576.835 321.827 559.165C298.738 546.819 299.539 519.49 307.832 500.736C315.418 483.584 333.183 461.297 346.518 454.888H346.471Z" fill="#3284C7"/>
<path d="M345.057 577.777C335.539 577.777 325.691 575.516 315.843 570.238C286.675 554.642 285.214 520.621 296.288 495.647C304.487 477.035 323.806 451.967 340.817 443.674C345.057 441.459 385.817 421.48 417.623 450.742C441.938 473.124 433.456 512.281 412.487 539.328C397.032 559.259 372.293 577.777 345.057 577.777ZM376.346 460.166C363.435 460.166 352.644 465.867 352.455 465.961C352.267 466.056 352.078 466.15 351.937 466.244C342.23 470.909 326.068 490.511 319.33 505.825C314.335 517.181 310.471 538.809 327.764 548.045C359.476 565.008 389.304 528.16 392.602 523.919C403.44 509.924 415.173 482.689 400.613 469.26C393.073 462.333 384.356 460.166 376.393 460.166H376.346Z" fill="#151F3F"/>
<path d="M488.304 634.51C488.304 634.51 400.66 577.071 404.052 534.851C407.445 492.631 457.063 504.741 472.048 514.448C490.566 526.463 564.498 549.6 564.498 549.6" fill="#3882BC"/>
<path d="M488.257 647.091C485.901 647.091 483.498 646.432 481.377 645.018C471.765 638.704 387.607 582.113 391.471 533.814C393.215 512.045 404.759 501.961 414.136 497.343C435.341 486.883 465.309 495.034 478.88 503.846C492.875 512.94 548.147 531.223 568.268 537.537C574.912 539.61 578.587 546.678 576.514 553.322C574.441 559.966 567.373 563.641 560.729 561.568C553.001 559.165 484.582 537.584 465.168 525.003C457.817 520.244 437.084 514.118 425.257 519.961C421.911 521.61 417.388 525.05 416.54 535.841C414.608 559.825 461.351 601.809 495.137 623.955C500.933 627.772 502.582 635.594 498.765 641.39C496.362 645.065 492.31 647.091 488.21 647.091H488.257Z" fill="#151F3F"/>
</svg>
