<svg width="877" height="856" viewBox="0 0 877 856" fill="none" xmlns="http://www.w3.org/2000/svg">
<path d="M290.019 855.075C286.155 855.075 282.291 854.462 278.616 853.19C271.972 850.881 266.412 846.734 262.736 841.457C246.527 851.022 229.846 854.839 216.228 851.87C206.663 849.797 198.982 844.567 194.081 836.698C176.741 808.944 195.589 775.536 222.024 754.567C260.804 716.494 299.726 711.593 316.501 717.625C321.354 719.368 326.915 720.122 332.333 720.876C343.737 722.431 356.648 724.222 363.339 736.143C369.841 747.735 367.58 763.991 355.47 792.075C349.203 810.876 329.506 836.368 312.119 848.101C305.239 852.718 297.558 855.122 290.019 855.122V855.075ZM266.553 812.101C268.061 812.101 269.616 812.336 271.312 812.855C279.652 815.588 282.385 823.975 283.234 826.708C283.375 827.132 284.6 828.593 287.003 829.394C289.359 830.148 293.223 830.384 298.077 827.132C311.035 818.415 327.339 797.305 331.721 783.687C331.862 783.31 332.004 782.886 332.145 782.509C344.255 754.567 341.569 748.63 341.428 748.394C340.108 747.264 333.37 746.368 328.941 745.756C322.579 744.86 315.37 743.871 308.019 741.279C303.59 739.677 273.762 738.782 239.223 772.944C238.893 773.274 238.516 773.604 238.139 773.886C220.799 787.457 206.333 808.708 215.427 823.316C216.228 824.588 217.736 826.378 221.506 827.179C227.867 828.546 239.647 826.708 253.595 817.378L254.49 816.719C256.61 815.211 260.898 812.054 266.506 812.054L266.553 812.101Z" fill="#121F42"/>
<path d="M266.553 812.101C268.061 812.101 269.616 812.336 271.312 812.855C279.652 815.588 282.385 823.975 283.234 826.708C283.375 827.132 284.6 828.593 287.003 829.394C289.359 830.148 293.223 830.384 298.077 827.132C311.035 818.415 327.339 797.305 331.721 783.687C331.862 783.31 332.004 782.886 332.145 782.509C344.255 754.567 341.569 748.63 341.428 748.394C340.108 747.263 333.37 746.368 328.941 745.756C322.579 744.86 315.37 743.871 308.019 741.279C303.59 739.677 273.762 738.782 239.223 772.944C238.893 773.274 238.516 773.604 238.139 773.886C220.799 787.457 206.333 808.708 215.427 823.316C216.228 824.588 217.736 826.378 221.506 827.179C227.867 828.546 239.647 826.708 253.595 817.378L254.49 816.719C256.61 815.211 260.898 812.054 266.506 812.054L266.553 812.101Z" fill="#F9C264"/>
<path d="M398.303 743.4C398.303 743.4 358.438 748.866 354.198 750.373C349.957 751.834 275.176 759.892 250.108 749.525C225.04 739.159 215.569 732.845 177.118 700.85C138.668 668.903 113.788 626.353 113.788 626.353C113.788 626.353 81.4631 587.432 75.8557 525.987C70.2483 464.543 80.285 445.647 80.285 445.647C80.285 445.647 92.1595 432.03 131.552 418.365C170.945 404.7 235.972 385.71 235.972 385.71L333.559 347.072C333.559 347.072 421.863 309.282 433.596 305.182C445.329 301.083 501.921 307.35 532.738 347.967C549.324 369.831 537.638 399.328 543.293 439.616C548.146 474.249 557.853 531.83 553.848 531.265C545.178 530.087 556.864 566.794 556.864 566.794L546.45 613.442L512.193 669.233L422.051 732.751L398.303 743.4Z" fill="#3882BC"/>
<path d="M428.743 130.178C422.57 112.366 409.8 98.0418 392.837 89.7958C375.873 81.5969 356.695 80.4661 338.931 86.6388C321.119 92.8116 306.794 105.581 298.548 122.544C290.349 139.508 289.218 158.638 295.391 176.45C305.522 205.57 332.899 223.9 362.114 223.9C369.795 223.9 377.57 222.628 385.203 219.989C403.015 213.816 417.339 201.047 425.538 184.083C433.737 167.12 434.868 147.989 428.696 130.178H428.743Z" fill="#121F42"/>
<path d="M137.631 231.204C124.861 194.45 84.5731 174.942 47.8189 187.665C30.0073 193.837 15.6826 206.607 7.43652 223.57C-0.809601 240.533 -1.89337 259.664 4.27944 277.476C10.4523 295.287 23.222 309.612 40.1854 317.858C49.9394 322.57 60.4002 324.973 70.9081 324.973C78.683 324.973 86.505 323.653 94.0914 321.015C130.846 308.245 150.401 267.957 137.631 231.204Z" fill="#121F42"/>
<path d="M362.067 197.371C386.399 197.371 406.124 177.646 406.124 153.314C406.124 128.982 386.399 109.256 362.067 109.256C337.734 109.256 318.009 128.982 318.009 153.314C318.009 177.646 337.734 197.371 362.067 197.371Z" fill="white"/>
<path d="M362.067 182.01C377.915 182.01 390.763 169.162 390.763 153.314C390.763 137.465 377.915 124.618 362.067 124.618C346.218 124.618 333.37 137.465 333.37 153.314C333.37 169.162 346.218 182.01 362.067 182.01Z" fill="#151F3F"/>
<path d="M501.827 336.187C511.298 329.685 511.11 314.135 510.874 304.428C509.696 258.109 478.219 236.811 470.397 229.177C446.366 205.758 413.947 188.465 350.098 170.089C286.25 151.712 244.595 158.356 205.014 172.068C165.48 185.779 128.631 206.418 89.9451 260.371C51.2119 314.37 36.5102 348.014 32.128 381.281C27.7458 414.548 43.4369 459.218 46.971 465.438C50.5051 471.658 59.7407 481.459 73.7355 484.804C80.8036 475.71 70.767 443.385 87.9189 430.286C107.333 415.49 118.83 414.077 127.642 410.401C193.94 382.977 228.433 389.763 288.229 364.789C357.355 335.904 417.104 296.653 455.319 305.795C479.35 311.543 488.35 345.422 501.733 336.234L501.827 336.187Z" fill="#35B597"/>
<path d="M221.318 332.794C227.537 332.794 232.579 327.752 232.579 321.533C232.579 315.313 227.537 310.271 221.318 310.271C215.098 310.271 210.056 315.313 210.056 321.533C210.056 327.752 215.098 332.794 221.318 332.794Z" fill="#121F42"/>
<path d="M284.271 310.931C290.49 310.931 295.532 305.889 295.532 299.669C295.532 293.449 290.49 288.407 284.271 288.407C278.051 288.407 273.009 293.449 273.009 299.669C273.009 305.889 278.051 310.931 284.271 310.931Z" fill="#121F42"/>
<path d="M73.7826 498.28C73.2642 498.28 72.6988 498.281 72.1333 498.186C58.4212 496.537 40.5625 481.459 35.2378 472.129C30.997 464.637 13.0911 416.621 18.7927 379.302C26.3792 329.402 40.5154 306.172 78.9658 252.549C121.751 192.895 162.699 172.492 200.584 159.345C238.469 146.198 283.281 136.821 353.821 157.177C354.575 157.413 355.894 157.696 357.685 158.12C413.758 171.455 455.036 192.329 480.34 220.177C504.654 246.894 522.654 292.318 524.162 302.496C525.764 313.145 521.099 335.999 511.345 345.8C506.068 351.077 497.539 351.124 492.261 345.847C486.984 340.616 486.937 332.087 492.167 326.81C494.853 323.7 497.963 310.695 497.445 306.501C496.125 299.952 480.387 260.418 460.313 238.366C438.732 214.664 402.072 196.523 351.37 184.413C349.014 183.848 347.271 183.423 346.281 183.141C286.485 165.895 248.318 171.361 209.396 184.884C170.474 198.408 137.113 217.774 100.83 268.334C62.3793 321.957 51.8243 341.087 45.4159 383.401C41.0337 412.239 55.7825 453.563 58.6568 458.888C60.8244 462.422 71.3794 470.715 75.3846 471.469C82.7826 472.364 88.013 479.102 87.1177 486.5C86.2695 493.38 80.4266 498.375 73.6883 498.375L73.7826 498.28Z" fill="#121F42"/>
<path d="M70.9553 298.397C95.2878 298.397 115.013 278.672 115.013 254.34C115.013 230.007 95.2878 210.282 70.9553 210.282C46.6228 210.282 26.8975 230.007 26.8975 254.34C26.8975 278.672 46.6228 298.397 70.9553 298.397Z" fill="white"/>
<path d="M70.9553 283.036C86.8039 283.036 99.6518 270.188 99.6518 254.339C99.6518 238.491 86.8039 225.643 70.9553 225.643C55.1067 225.643 42.2588 238.491 42.2588 254.339C42.2588 270.188 55.1067 283.036 70.9553 283.036Z" fill="#121F42"/>
<path d="M362.067 197.371C386.399 197.371 406.124 177.646 406.124 153.314C406.124 128.982 386.399 109.256 362.067 109.256C337.734 109.256 318.009 128.982 318.009 153.314C318.009 177.646 337.734 197.371 362.067 197.371Z" fill="white"/>
<path d="M362.067 182.01C377.915 182.01 390.763 169.162 390.763 153.314C390.763 137.465 377.915 124.618 362.067 124.618C346.218 124.618 333.37 137.465 333.37 153.314C333.37 169.162 346.218 182.01 362.067 182.01Z" fill="#121F42"/>
<path d="M342.889 468.925C345.433 476.275 333.182 487.16 315.559 493.286C297.936 499.411 281.538 498.422 278.993 491.071C276.449 483.72 286.014 465.155 303.637 459.03C321.26 452.904 340.297 461.574 342.842 468.925H342.889Z" fill="#121F42" stroke="#121F42" stroke-width="6.66" stroke-miterlimit="10"/>
<path d="M342.889 468.925C345.433 476.275 333.182 487.16 315.559 493.286C297.936 499.411 281.538 498.422 278.993 491.071C276.449 483.72 286.014 465.155 303.637 459.03C321.26 452.904 340.297 461.574 342.842 468.925H342.889Z" fill="#F9C264"/>
<path d="M485.806 391.271C472.235 352.397 443.35 327.752 411.025 325.632C404.711 328.412 397.454 331.711 388.878 335.622L386.287 336.8C375.873 341.559 363.622 347.119 349.391 353.292C329.271 375.721 316.03 409.035 323.475 440.323C339.166 442.302 353.302 450.359 357.307 461.857C363.103 478.49 348.449 496.16 320.789 505.82C293.129 515.479 270.652 510.814 264.857 494.181C260.804 482.542 267.024 467.181 278.333 455.825C264.621 426.846 233.616 409.082 203.977 404.087C188.992 408.092 175.893 411.438 164.819 414.171L162.039 414.878C152.898 417.139 145.17 419.071 138.479 420.862C114.495 442.632 107.238 479.904 120.856 518.778C135.557 560.809 185.411 582.296 227.443 567.641C228.856 567.123 249.59 560.903 270.417 552.657C291.244 544.411 308.632 536.401 331.344 526.411C345.669 520.144 353.066 521.275 375.684 516.799C403.815 511.238 432.229 496.066 432.889 495.83C474.921 481.129 500.507 433.255 485.853 391.224L485.806 391.271Z" fill="white"/>
<path d="M201.574 495.501C215.341 495.501 226.501 484.34 226.501 470.574C226.501 456.807 215.341 445.647 201.574 445.647C187.807 445.647 176.647 456.807 176.647 470.574C176.647 484.34 187.807 495.501 201.574 495.501Z" fill="#121F42"/>
<path d="M390.763 429.862C404.53 429.862 415.69 418.702 415.69 404.935C415.69 391.169 404.53 380.009 390.763 380.009C376.997 380.009 365.836 391.169 365.836 404.935C365.836 418.702 376.997 429.862 390.763 429.862Z" fill="#121F42"/>
<path d="M538.298 467.181C536.696 464.165 548.052 533.432 542.02 566.652C527.79 645.107 486.984 689.306 405.323 722.855C401.742 724.316 390.904 728.085 387.135 729.169C303.637 753.059 235.171 734.541 176.034 683.651C175.516 682.897 174.95 682.19 174.244 681.531C173.867 681.201 137.112 646.426 113.081 599.165C88.4839 550.772 81.5571 500.024 92.5363 448.333C95.8818 432.454 103.421 429.579 148.798 418.647C153.322 417.564 158.081 416.433 163.17 415.16C189.793 408.611 226.783 399.14 277.296 383.778C277.626 383.684 277.909 383.59 278.239 383.448C327.386 364.223 362.302 348.721 387.276 337.365L389.915 336.187C438.732 313.946 447.355 310.554 464.931 320.826C474.685 326.575 509.177 367.192 530.523 394.192C534.858 399.658 542.774 400.553 548.193 396.265C553.659 391.93 554.555 384.014 550.267 378.595C541.172 367.098 495.041 309.329 477.654 299.104C448.297 281.905 429.543 290.433 379.454 313.24L376.815 314.418C352.218 325.632 317.82 340.899 269.522 359.794C219.856 374.92 183.385 384.203 157.186 390.658C152.144 391.883 147.385 393.014 142.955 394.098C99.0389 404.653 74.866 410.448 67.9393 443.008C55.735 500.495 63.3686 556.804 90.6515 610.473C116.756 661.834 155.395 698.306 157.044 699.813C158.175 700.897 159.448 701.651 160.814 702.217C222.448 760.504 309.763 782.604 395.428 752.871C399.103 751.598 409.941 747.829 413.617 746.556C502.628 715.646 559.031 658.63 568.22 570.421C572.131 532.772 550.078 488.903 538.298 467.087V467.181Z" fill="#121F42"/>
<path d="M465.026 622.065L540.89 351.407L590.555 365.826L516.576 632.196L465.026 622.065Z" fill="white"/>
<path d="M549.042 366.061L576.089 373.883L508.141 618.531L479.822 612.971L549.042 366.061ZM532.785 336.8L450.277 631.159L525.01 645.861L605.021 357.721L532.785 336.8Z" fill="#121F42"/>
<path d="M499.141 762.201C494.382 762.201 489.481 761.635 484.439 760.457C441.324 750.091 425.35 725.918 429.449 676.96C429.449 676.442 429.543 675.924 429.685 675.452C436.187 644.353 450.088 621.217 471.01 606.704C480.528 600.107 492.025 598.364 503.429 601.756C510.827 603.971 517.471 608.212 522.041 613.395C544.659 594.123 570.293 590.589 588.482 604.631C620.147 629.039 598.848 672.814 587.351 696.327C586.267 698.541 585.23 700.662 584.335 702.593C584.099 703.112 583.769 703.677 583.44 704.149C573.827 718.756 541.549 762.295 499.094 762.295L499.141 762.201ZM454.517 679.835C451.36 719.698 463.046 729.405 490.376 735.955C498.811 737.981 528.921 740.714 562 690.908C562.848 689.117 563.79 687.185 564.78 685.206C576.796 660.515 587.351 635.447 573.167 624.468C564.167 617.542 549.23 621.877 535.047 635.589L534.293 636.343C531.748 638.934 525.764 645.013 517.094 643.269C511.156 642.091 506.633 637.803 503.664 630.5C503.24 629.746 500.319 626.777 495.512 625.599C491.79 624.704 488.397 625.269 485.476 627.343C470.161 637.945 459.748 655.615 454.565 679.787L454.517 679.835Z" fill="#121F42"/>
<path d="M563.366 585.264C561.576 585.264 559.691 585.17 557.712 584.887C539.193 582.626 522.748 574.474 510.12 561.422C508.188 559.395 506.397 557.558 504.701 555.861C492.591 543.516 484.628 535.411 475.439 512.605C462.622 480.846 465.12 440.888 494.617 425.951C533.209 406.443 566.994 436.742 570.481 440.04C584.9 452.951 596.586 482.354 599.178 502.333C603.984 539.605 600.356 562.882 587.68 575.605C583.11 580.175 575.382 585.264 563.366 585.264ZM521.334 444.705C516.434 444.705 511.251 445.742 505.973 448.38C488.256 457.333 492.167 486.736 498.764 503.134C506.067 521.275 511.251 526.553 522.654 538.144C524.397 539.935 526.235 541.819 528.261 543.893C539.052 555.107 551.916 558.783 560.775 559.867C566.994 560.62 568.926 558.641 569.775 557.84C572.743 554.872 579.104 543.799 574.157 505.537C572.036 489.234 561.858 466.05 553.565 458.7C553.424 458.558 553.282 458.464 553.188 458.323C552.387 457.569 538.581 444.705 521.334 444.705Z" fill="#151F3F"/>
<path d="M332.946 527.778C368.663 527.118 409.328 514.867 429.308 505.443C445.517 497.809 496.313 492.532 493.957 534.799C491.601 577.112 397.03 622.16 397.03 622.16" fill="#3882BC"/>
<path d="M396.983 634.835C392.271 634.835 387.747 632.196 385.627 627.673C382.658 621.406 385.297 613.866 391.564 610.898C455.554 580.364 480.575 547.615 481.329 534.186C481.942 523.348 477.936 519.343 474.826 517.27C463.941 509.919 442.549 513.171 434.632 516.893C415.407 525.94 372.48 539.699 333.134 540.406C326.208 540.359 320.459 534.987 320.318 528.061C320.176 521.134 325.737 515.385 332.663 515.244C367.768 514.584 407.255 501.956 423.889 494.087C438.543 487.207 469.313 483.155 488.915 496.349C497.586 502.192 507.669 513.736 506.444 535.553C503.758 583.898 412.721 628.662 402.355 633.61C400.611 634.458 398.774 634.835 396.936 634.835H396.983Z" fill="#151F3F"/>
<path d="M454.47 679.835C451.313 719.698 462.999 729.405 490.329 735.955C498.764 737.981 528.874 740.714 561.953 690.908C562.801 689.117 563.743 687.185 564.733 685.206C576.749 660.515 587.304 635.447 573.12 624.468C564.12 617.542 549.183 621.877 535 635.589L534.246 636.342C531.701 638.934 525.717 645.013 517.047 643.269C511.109 642.091 506.586 637.803 503.617 630.5C503.193 629.746 500.272 626.777 495.465 625.599C491.743 624.704 488.35 625.269 485.429 627.343C470.115 637.945 459.701 655.615 454.518 679.787L454.47 679.835Z" fill="#F9C264"/>
<path d="M521.335 444.752C516.434 444.752 511.251 445.789 505.973 448.428C488.256 457.38 492.167 486.783 498.764 503.181C506.068 521.322 511.251 526.6 522.654 538.191C524.397 539.982 526.235 541.867 528.261 543.94C539.052 555.155 551.916 558.83 560.775 559.914C566.995 560.668 568.926 558.689 569.775 557.888C572.743 554.919 579.105 543.846 574.157 505.584C572.036 489.281 561.858 466.097 553.565 458.747C553.424 458.605 553.282 458.511 553.188 458.37C552.387 457.616 538.581 444.752 521.335 444.752Z" fill="#3882BC"/>
<path d="M431.005 14.527L351.711 300.06L783.08 419.85L862.374 134.317L431.005 14.527Z" fill="white"/>
<path d="M439.251 29.058L847.928 142.57L774.938 405.407L366.261 291.894L439.251 29.058ZM422.853 0.0318604L337.234 308.292L791.289 434.386L876.907 126.125L422.853 0.0318604Z" fill="#121F42"/>
</svg>
