<svg width="179" height="212" viewBox="0 0 179 212" fill="none" xmlns="http://www.w3.org/2000/svg">
<path d="M170.83 136.47C169.72 126.21 161.74 108.72 161.66 108.54C161.61 108.43 161.56 108.32 161.52 108.2C158.07 98.28 152.2 83.13 149.96 80.51C145.93 75.78 143.11 75.9 126.82 77.43L125.94 77.51C117.62 78.29 106.01 79.26 89.92 79.89C89.82 79.89 89.72 79.89 89.62 79.89C73.52 79.27 61.91 78.29 53.6 77.51L52.72 77.43C36.43 75.9 33.61 75.78 29.58 80.51C27.34 83.14 21.47 98.29 18.02 108.2C17.98 108.32 17.93 108.43 17.88 108.54C17.8 108.72 9.82001 126.21 8.71001 136.47C7.34001 149.21 9.37 157.01 14.59 159.04C16.45 159.77 19.94 157.59 22.19 155C20.54 145.87 21.91 135.76 22.85 130.01C23.02 128.98 25.06 120.33 25.07 122.05C25.12 130.2 26.65 149.91 31.67 158.93C31.69 158.97 31.71 159.01 31.73 159.04C43.68 180.22 59.85 188.88 86.73 190.37C87.91 190.44 91.41 190.44 92.6 190.37C119.48 188.87 135.65 180.22 147.6 159.04C147.62 159.01 147.64 158.96 147.66 158.93C152.67 149.91 154.21 130.19 154.26 122.05C154.27 120.33 156.31 128.98 156.48 130.01C157.4 135.71 158.76 145.71 157.18 154.78C159.43 157.46 163.05 159.78 164.96 159.05C170.18 157.02 172.22 149.21 170.85 136.47H170.83Z" fill="#3882BC"/>
<path d="M156.91 56.27C154.78 51.3 151.15 46.36 146.07 41.49C143.9 39.41 141.44 37.34 138.74 35.29C138.19 35.36 137.64 35.4 137.07 35.4C130.83 35.4 125.6 31.14 124.09 25.38C121.15 23.59 118.32 22.08 115.61 20.87C106.5 16.82 98.46 15.78 89.96 15.78C81.46 15.78 73.57 16.8 64.56 20.76C61.86 21.95 59.05 23.43 56.13 25.2C54.68 31.06 49.41 35.41 43.1 35.41C42.59 35.41 42.09 35.38 41.59 35.32C38.64 37.55 36.19 39.55 34.09 41.49C29.26 45.96 26.23 50.18 22.86 56.58C18.71 64.45 18.83 77.84 19.13 79.65C19.23 80.13 19.63 80.94 20.14 81.79C21.46 79 22.7 76.72 23.72 75.53C30.45 67.63 36.7 68.22 53.42 69.79L54.3 69.87C62.49 70.64 73.92 71.59 89.75 72.21C105.58 71.59 117.01 70.64 125.2 69.87L126.08 69.79C142.79 68.22 149.05 67.64 155.78 75.53C156.84 76.77 158.15 79.19 159.52 82.14C160.13 81.16 160.64 80.18 160.76 79.62C161.04 77.6 160.46 64.64 156.89 56.28L156.91 56.27Z" fill="#35B597"/>
<path d="M79.69 59.78C81.5844 59.78 83.12 58.2444 83.12 56.35C83.12 54.4557 81.5844 52.92 79.69 52.92C77.7957 52.92 76.26 54.4557 76.26 56.35C76.26 58.2444 77.7957 59.78 79.69 59.78Z" fill="#121F42"/>
<path d="M100.03 59.78C101.924 59.78 103.46 58.2444 103.46 56.35C103.46 54.4557 101.924 52.92 100.03 52.92C98.1357 52.92 96.6 54.4557 96.6 56.35C96.6 58.2444 98.1357 59.78 100.03 59.78Z" fill="#121F42"/>
<path d="M65.71 203.19C64.22 204.16 63.05 204.06 62.32 203.81C61.59 203.56 61.24 203.1 61.19 202.97C60.94 202.13 60.17 199.56 57.64 198.67C57.1 198.48 56.59 198.41 56.1 198.41C54.44 198.41 53.14 199.32 52.5 199.76L52.21 199.96C47.9 202.71 44.3 203.2 42.37 202.75C41.23 202.48 40.78 201.92 40.54 201.53C38.17 197.55 41.42 192.12 45.89 188.14C50.63 190.68 56.53 193.52 59.37 194.61C64.49 196.57 68.82 197.13 72.34 197.31C70.39 199.73 67.9 201.8 65.7 203.21L65.71 203.19Z" fill="#F9C264"/>
<path d="M138.9 201.51C138.66 201.9 138.22 202.46 137.07 202.73C135.15 203.19 131.54 202.7 127.23 199.94L126.95 199.75C126.13 199.18 124.2 197.83 121.81 198.66C119.28 199.54 118.51 202.11 118.26 202.95C118.21 203.09 117.86 203.54 117.13 203.8C116.41 204.05 115.24 204.15 113.74 203.18C111.55 201.76 109.05 199.69 107.1 197.28C110.62 197.1 114.95 196.54 120.07 194.58C122.91 193.5 128.81 190.65 133.55 188.11C138.02 192.1 141.27 197.53 138.9 201.5V201.51Z" fill="#F9C264"/>
<path d="M178.46 135.65C177.27 124.6 169.63 107.52 168.71 105.51C167.92 103.23 165.69 96.95 163.18 90.64C166.03 88.01 168.4 83.68 168.88 81.13C169.45 78.04 168.81 63.16 164.48 53.03C162.08 47.42 158.17 41.93 152.81 36.59C156.38 32.75 158.59 27.61 158.59 21.96C158.59 10.09 148.94 0.440018 137.07 0.440018C128.49 0.440018 121.08 5.50001 117.63 12.79C107.11 8.36001 98.17 7.54001 89.95 7.54001C81.73 7.54001 72.92 8.35001 62.49 12.7C59.02 5.46001 51.64 0.440018 43.09 0.440018C31.22 0.440018 21.57 10.09 21.57 21.96C21.57 27.58 23.76 32.69 27.3 36.53C22.65 41.06 19.21 45.82 15.57 52.73C10.2 62.93 10.55 78.55 11.03 81.13C11.49 83.6 13.72 87.74 16.44 90.39C13.88 96.78 11.61 103.2 10.8 105.51C9.89001 107.52 2.24001 124.6 1.05001 135.65C-0.759993 152.45 2.85001 162.73 11.79 166.21C12.97 166.67 14.17 166.87 15.36 166.87C18.73 166.87 22.03 165.22 24.72 163.11C28.63 171.34 33.76 177.97 39.91 183.19C33.41 189.4 29.49 197.98 33.94 205.44C35.39 207.87 37.69 209.52 40.59 210.21C44.72 211.19 49.84 210.14 54.84 207.32C55.92 208.95 57.59 210.25 59.6 211C60.79 211.44 62.04 211.65 63.3 211.65C65.53 211.65 67.8 210.97 69.86 209.64C74.76 206.48 78.75 202.25 81.07 197.91C82.92 198.01 84.8 198.06 86.71 198.06H92.58C94.54 198.06 96.46 198 98.35 197.9C100.67 202.24 104.66 206.48 109.56 209.64C111.62 210.97 113.89 211.65 116.12 211.65C117.38 211.65 118.62 211.43 119.81 211C121.82 210.26 123.49 208.95 124.58 207.32C129.58 210.14 134.7 211.19 138.83 210.21C141.74 209.52 144.04 207.87 145.48 205.45C149.94 197.97 145.98 189.36 139.45 183.14C145.6 177.9 150.72 171.25 154.62 163C158.28 165.92 163.12 167.99 167.71 166.21C176.64 162.73 180.25 152.45 178.45 135.65H178.46ZM22.87 56.57C26.24 50.17 29.27 45.95 34.1 41.48C36.2 39.54 38.65 37.54 41.6 35.31C34.89 34.56 29.68 28.87 29.68 21.96C29.68 14.54 35.7 8.52002 43.12 8.52002C50.54 8.52002 56.56 14.54 56.56 21.96C56.56 23.08 56.41 24.15 56.15 25.19C59.07 23.43 61.88 21.94 64.58 20.75C73.58 16.79 81.55 15.77 89.98 15.77C98.41 15.77 106.52 16.81 115.63 20.86C118.34 22.07 121.17 23.58 124.11 25.37C123.82 24.28 123.66 23.14 123.66 21.96C123.66 14.54 129.68 8.52002 137.1 8.52002C144.52 8.52002 150.54 14.54 150.54 21.96C150.54 28.81 145.4 34.46 138.77 35.28C141.47 37.33 143.92 39.4 146.1 41.48C151.18 46.35 154.81 51.29 156.94 56.26C160.51 64.62 161.09 77.59 160.81 79.6C160.69 80.16 160.18 81.14 159.57 82.12C158.19 79.17 156.89 76.75 155.83 75.51C149.1 67.61 142.84 68.2 126.13 69.77L125.25 69.85C117.06 70.62 105.63 71.58 89.8 72.19C73.96 71.57 62.54 70.62 54.35 69.85L53.47 69.77C36.75 68.2 30.5 67.62 23.77 75.51C22.75 76.7 21.51 78.98 20.19 81.77C19.68 80.92 19.28 80.11 19.18 79.63C18.88 77.82 18.76 64.44 22.91 56.56L22.87 56.57ZM65.71 203.19C64.22 204.16 63.05 204.06 62.32 203.81C61.59 203.56 61.24 203.1 61.19 202.97C60.94 202.13 60.17 199.56 57.64 198.67C57.1 198.48 56.59 198.41 56.1 198.41C54.44 198.41 53.14 199.32 52.5 199.76L52.21 199.96C47.9 202.71 44.3 203.2 42.37 202.75C41.23 202.48 40.78 201.92 40.54 201.53C38.17 197.55 41.42 192.12 45.89 188.14C50.63 190.68 56.53 193.52 59.37 194.61C64.49 196.57 68.82 197.13 72.34 197.31C70.39 199.73 67.9 201.8 65.7 203.21L65.71 203.19ZM138.9 201.51C138.66 201.9 138.22 202.46 137.07 202.73C135.15 203.19 131.54 202.7 127.23 199.94L126.95 199.75C126.13 199.18 124.2 197.83 121.81 198.66C119.28 199.54 118.51 202.11 118.26 202.95C118.21 203.09 117.86 203.54 117.13 203.8C116.41 204.05 115.24 204.15 113.74 203.18C111.55 201.76 109.05 199.69 107.1 197.28C110.62 197.1 114.95 196.54 120.07 194.58C122.91 193.5 128.81 190.65 133.55 188.11C138.02 192.1 141.27 197.53 138.9 201.5V201.51ZM164.94 159.05C163.02 159.79 159.4 157.47 157.16 154.78C158.75 145.71 157.39 135.71 156.46 130.01C156.29 128.98 154.25 120.33 154.24 122.05C154.19 130.23 152.65 150.08 147.59 159.04C135.64 180.22 119.47 188.88 92.59 190.37C91.41 190.44 87.91 190.44 86.72 190.37C59.84 188.87 43.67 180.22 31.72 159.04C26.66 150.07 25.11 130.22 25.07 122.05C25.06 120.33 23.02 128.98 22.85 130.01C21.92 135.75 20.55 145.87 22.19 155C19.93 157.59 16.45 159.77 14.59 159.04C9.37 157.01 7.33 149.2 8.71 136.47C9.82 126.21 17.8 108.71 17.88 108.54C17.93 108.43 17.98 108.32 18.02 108.2C21.47 98.28 27.34 83.14 29.58 80.51C33.61 75.78 36.43 75.9 52.72 77.43L53.6 77.51C61.91 78.29 73.52 79.26 89.62 79.89C89.71 79.89 89.82 79.89 89.92 79.89C106.02 79.27 117.63 78.29 125.94 77.51L126.82 77.43C143.11 75.9 145.93 75.78 149.96 80.51C152.2 83.14 158.07 98.29 161.52 108.2C161.56 108.32 161.61 108.43 161.66 108.54C161.74 108.72 169.72 126.21 170.83 136.47C172.2 149.21 170.16 157.01 164.94 159.05Z" fill="#121F42"/>
<path d="M137.07 35.4C144.493 35.4 150.51 29.3827 150.51 21.96C150.51 14.5373 144.493 8.52002 137.07 8.52002C129.647 8.52002 123.63 14.5373 123.63 21.96C123.63 29.3827 129.647 35.4 137.07 35.4Z" fill="white"/>
<path d="M43.1 35.4C50.5227 35.4 56.54 29.3827 56.54 21.96C56.54 14.5373 50.5227 8.52002 43.1 8.52002C35.6773 8.52002 29.66 14.5373 29.66 21.96C29.66 29.3827 35.6773 35.4 43.1 35.4Z" fill="white"/>
<path d="M43.1 30.71C47.9325 30.71 51.85 26.7925 51.85 21.96C51.85 17.1275 47.9325 13.21 43.1 13.21C38.2675 13.21 34.35 17.1275 34.35 21.96C34.35 26.7925 38.2675 30.71 43.1 30.71Z" fill="#121F42"/>
<path d="M137.07 30.71C141.903 30.71 145.82 26.7925 145.82 21.96C145.82 17.1275 141.903 13.21 137.07 13.21C132.238 13.21 128.32 17.1275 128.32 21.96C128.32 26.7925 132.238 30.71 137.07 30.71Z" fill="#121F42"/>
<path d="M149.37 103.48C149.37 90.78 143.47 80.67 134.28 76.77C132.16 76.93 129.71 77.16 126.82 77.43L125.94 77.51C122.43 77.84 118.29 78.2 113.52 78.56C105.38 83.04 98.14 91.39 97.13 101.26C101.5 103.43 104.79 107.22 104.79 110.98C104.79 116.41 98.72 120.06 89.69 120.06C80.66 120.06 74.59 116.41 74.59 110.98C74.59 107.18 77.96 103.34 82.41 101.18C81.36 91.34 74.14 83.03 66.03 78.56C61.26 78.2 57.12 77.84 53.61 77.51L52.73 77.43C49.84 77.16 47.39 76.94 45.27 76.77C36.07 80.67 30.18 90.78 30.18 103.48C30.18 117.21 42.5 128.54 56.23 128.54C56.7 128.54 57.16 128.5 57.63 128.47C52.34 134.48 49.17 141.99 49.17 150.17C49.17 169.86 67.4 185.82 89.88 185.82C112.36 185.82 130.59 169.86 130.59 150.17C130.59 142 127.42 134.49 122.14 128.48C122.54 128.5 122.94 128.54 123.34 128.54C137.07 128.54 149.39 117.21 149.39 103.48H149.37Z" fill="white"/>
<path d="M59.1 104.92C63.2974 104.92 66.7 101.517 66.7 97.32C66.7 93.1227 63.2974 89.72 59.1 89.72C54.9026 89.72 51.5 93.1227 51.5 97.32C51.5 101.517 54.9026 104.92 59.1 104.92Z" fill="#121F42"/>
<path d="M120.18 104.92C124.377 104.92 127.78 101.517 127.78 97.32C127.78 93.1227 124.377 89.72 120.18 89.72C115.983 89.72 112.58 93.1227 112.58 97.32C112.58 101.517 115.983 104.92 120.18 104.92Z" fill="#121F42"/>
<path d="M89.68 99.42C82.2 99.42 74.58 105.25 74.58 110.97C74.58 116.69 80.65 120.05 89.68 120.05C98.71 120.05 104.78 116.4 104.78 110.97C104.78 105.25 97.16 99.42 89.68 99.42ZM89.68 115.26C83.99 115.26 79.37 113.34 79.37 110.97C79.37 108.6 83.99 104.2 89.68 104.2C95.37 104.2 99.99 108.6 99.99 110.97C99.99 113.34 95.37 115.26 89.68 115.26Z" fill="#121F42"/>
<path d="M89.68 115.27C83.99 115.27 79.37 113.35 79.37 110.98C79.37 108.61 83.99 104.21 89.68 104.21C95.37 104.21 99.99 108.61 99.99 110.98C99.99 113.35 95.37 115.27 89.68 115.27Z" fill="#F9C264"/>
</svg>
